<?xml version="1.0" encoding="utf-8"?>
<!-- Generator: Adobe Illustrator 23.0.2, SVG Export Plug-In . SVG Version: 6.00 Build 0)  -->
<svg version="1.1" id="Calque_1" xmlns="http://www.w3.org/2000/svg" xmlns:xlink="http://www.w3.org/1999/xlink" x="0px" y="0px" width="50" height="50"
	 viewBox="0 0 1000 1000" style="enable-background:new 0 0 1000 1000;" xml:space="preserve">
<style type="text/css">
	.st0{fill:#2BE055;}
	.st1{display:none;}
	.st2{display:inline;}
	.st3{fill:#FFFFFF;}
	.st4{fill:#7529E2;}
	.st5{display:none;fill:#20CEC9;}
	.st6{display:none;opacity:0.33;fill:#20CEC9;}
	.st7{display:none;fill:#FFFFFF;}
	.st8{font-family:'Montserrat-SemiBold';}
	.st9{font-size:236.4755px;}
	.st10{fill:#F0F4F7;}
</style>
<path class="st0" d="M893.2,1000H106.8C47.8,1000,0,952.2,0,893.2V106.8C0,47.8,47.8,0,106.8,0h786.4c59,0,106.8,47.8,106.8,106.8
	v786.4C1000,952.2,952.2,1000,893.2,1000z"/>
<g class="st1">
	
		<image style="display:inline;overflow:visible;opacity:0.12;" width="560" height="384" xlink:href="90A9D63F.png"  transform="matrix(1.5047 0 0 1.5047 121.8546 248.2166)">
	</image>
	<g class="st2">
		<path class="st3" d="M697.3,411.4c-2.5,0-5,0.1-7.4,0.2c-1.3,0.1-2.5,0.2-3.8,0.3c-1.2,0.1-2.3,0.1-3.5,0.3
			c-1.7,0.2-3.4,0.4-5.2,0.6c-0.7,0.1-1.3,0.2-2,0.2c-2,0.3-4,0.7-6,1c-0.3,0.1-0.7,0.1-1,0.2c-2.2,0.4-4.3,0.9-6.5,1.5
			c-0.1,0-0.3,0.1-0.4,0.1c-6.8,1.7-13.4,3.9-19.9,6.5c0-0.9,0.1-1.7,0.1-2.6c0-81.1-65.7-146.8-146.8-146.8
			s-146.8,65.7-146.8,146.8c0,0.9,0.2,1.8,0.2,2.7c-17.2-7-35.9-11-55.6-11c-81.1,0-146.8,65.7-146.8,146.8s65.7,146.8,146.8,146.8
			h411.5v-0.2c2.2-0.1,4.3-0.3,6.4-0.5c0.3,0,0.6,0,0.9-0.1c2-0.2,3.9-0.4,5.8-0.7c0.5-0.1,1-0.1,1.4-0.2c1.8-0.3,3.6-0.6,5.4-0.9
			c0.6-0.1,1.2-0.2,1.7-0.3c1.7-0.3,3.4-0.7,5.1-1.1c0.7-0.2,1.3-0.3,2-0.5c1.6-0.4,3.2-0.9,4.8-1.3c0.7-0.2,1.4-0.4,2.1-0.6
			c1.5-0.5,3.1-1,4.6-1.5c0.7-0.2,1.4-0.5,2.2-0.7c1.5-0.5,2.9-1.1,4.4-1.7c0.7-0.3,1.5-0.6,2.2-0.9c1.4-0.6,2.8-1.2,4.2-1.8
			c0.8-0.3,1.5-0.7,2.3-1c1.3-0.6,2.7-1.3,4-2c0.8-0.4,1.5-0.8,2.3-1.2c1.3-0.7,2.5-1.4,3.8-2.1c0.8-0.4,1.5-0.9,2.3-1.3
			c1.2-0.7,2.4-1.5,3.6-2.2c0.8-0.5,1.6-1,2.3-1.5c1.2-0.8,2.3-1.5,3.4-2.3c0.8-0.5,1.5-1.1,2.3-1.6c1.1-0.8,2.2-1.6,3.3-2.5
			c0.8-0.6,1.5-1.2,2.3-1.8c1-0.8,2.1-1.7,3.1-2.6c0.8-0.6,1.5-1.3,2.2-1.9c1-0.9,2-1.8,2.9-2.7c0.7-0.7,1.5-1.4,2.2-2.1
			c0.9-0.9,1.8-1.8,2.7-2.7c0.7-0.7,1.4-1.5,2.1-2.2c0.9-0.9,1.7-1.9,2.6-2.8c0.7-0.8,1.4-1.6,2.1-2.4c0.8-1,1.6-1.9,2.4-2.9
			c0.7-0.8,1.3-1.7,2-2.5c0.8-1,1.5-2,2.2-2.9c0.7-0.9,1.3-1.8,1.9-2.7c0.7-1,1.4-2,2.1-3c0.6-0.9,1.2-1.9,1.8-2.8
			c0.6-1,1.3-2,1.9-3.1c0.6-1,1.1-2,1.7-3c0.6-1,1.2-2.1,1.7-3.1c0.5-1,1.1-2.1,1.6-3.1c0.5-1.1,1.1-2.1,1.6-3.2
			c0.5-1.1,1-2.1,1.5-3.2c0.5-1.1,1-2.1,1.4-3.2c0.5-1.1,0.9-2.2,1.3-3.4c0.4-1.1,0.8-2.1,1.2-3.2c0.4-1.2,0.8-2.3,1.2-3.5
			c0.4-1.1,0.7-2.2,1.1-3.2c0.4-1.2,0.7-2.4,1-3.6c0.3-1.1,0.6-2.2,0.9-3.2c0.3-1.3,0.6-2.5,0.9-3.8c0.2-1.1,0.5-2.1,0.7-3.2
			c0.3-1.3,0.5-2.7,0.7-4c0.2-1,0.4-2.1,0.5-3.1c0.2-1.4,0.4-2.9,0.5-4.3c0.1-1,0.3-1.9,0.4-2.9c0.2-1.6,0.3-3.2,0.4-4.8
			c0.1-0.9,0.1-1.7,0.2-2.6c0.1-2.5,0.2-4.9,0.2-7.4C844.1,477.1,778.4,411.4,697.3,411.4z"/>
	</g>
</g>
<g class="st1">
	
		<image style="display:inline;overflow:visible;opacity:0.12;" width="196" height="238" xlink:href="90A9D63D.png"  transform="matrix(1.5047 0 0 1.5047 356.591 312.9196)">
	</image>
	<g class="st2">
		<path class="st4" d="M609.8,644c-76.5,0-153.1,0-229.6,0c-11.3-4.7-13.8-8.5-13.8-21c0-46.2,0-92.4,0-138.6c0-1.3,0-2.5,0.1-3.8
			c0.7-8.5,6.3-14.7,14.8-15.6c4.7-0.5,9.4-0.2,14.1-0.4c1.1,0,2.2-0.1,3.5-0.2c0-1.5,0-2.6,0-3.8c0-13.5,0-27,0-40.5
			c0.1-30.6,11.5-56.3,35.2-75.4c28.3-22.8,60.2-28,94.6-15.8c35.7,12.7,61.2,48,62.2,85.9c0.4,15.3,0.2,30.5,0.2,45.8
			c0,1.2,0,2.4,0,4c5.2,0,10-0.1,14.8,0c10.5,0.2,17.6,6.9,17.6,17.2c0.1,48.3,0.1,96.6,0,144.9c0,7.1-3.2,12.4-9.7,15.6
			C612.6,643,611.2,643.4,609.8,644z M439.2,464.4c37.4,0,74.4,0,111.4,0c0-16.8,0.8-33.3-0.2-49.7c-1.7-27.2-23.5-49.1-49.5-51.2
			c-28.8-2.3-53.3,14.7-59.8,42.3c-1.9,7.9-1.6,16.4-1.8,24.6C439,441.6,439.2,452.9,439.2,464.4z M476.9,575.6
			c0,4.6-0.1,9.2,0,13.8c0.2,8.2,4.9,14.9,12.1,17.4c12,4.2,24-4.4,24.2-17.5c0.2-9,0-18,0.1-27c0-1.3,0.6-2.8,1.5-3.7
			c8.6-8.6,11.6-18.8,7.8-30.4c-3.9-12.2-12.7-19-25.3-20.1c-11.6-1-20.9,3.7-27,13.7c-6.5,10.8-6.7,22.4,1.4,32.2
			c4.5,5.4,5.6,10.6,5.2,16.9C476.8,572.4,476.9,574,476.9,575.6z"/>
	</g>
</g>
<g class="st1">
	<g class="st2">
		
			<image style="overflow:visible;opacity:0.25;" width="650" height="453" xlink:href="90A9D643.png"  transform="matrix(1 0 0 1 225 447)">
		</image>
		<g>
			<path class="st3" d="M617,524.2c-7.7-2.5-15.8-4.6-24.2-6c-6-1-13.9,0.8-19.2,4.1c-49.1,31.2-97.9,31.5-146.6-0.2
				c-10.3-6.8-20.6-4.6-30.7-2.1c-45.2,11.6-78.1,38.6-99.2,80.2c-2.7,5.4-2.4,10,0.9,15.2c47.4,73.4,115,110.8,201.2,114.1
				c80-2.6,143.1-34,190.2-94.8c3.9-5.1,7.7-10.4,11.5-16c4.7-6.9,4.9-13.1,0.9-20.5C682.5,561.4,654.4,536.4,617,524.2z"/>
		</g>
	</g>
	<g class="st2">
		
			<image style="overflow:visible;opacity:0.25;" width="480" height="479" xlink:href="90A9D645.png"  transform="matrix(1 0 0 1 310 200)">
		</image>
		<g>
			<path class="st3" d="M505,508.4c64.3-2.5,116.5-58.3,114-121.9c-2.7-68-57.6-118.8-125.6-116C431.3,273,378.7,329.4,381,390.7
				C383.6,459.4,437.9,511,505,508.4z"/>
		</g>
	</g>
	<g class="st2">
		
			<image style="overflow:visible;opacity:0.25;" width="375" height="363" xlink:href="90A9D647.png"  transform="matrix(1 0 0 1 623 440)">
		</image>
		<g>
			<path class="st3" d="M826.4,558.3c-13.9-26.4-35.4-42.4-64.8-47.5c-3.6-0.7-8.3,0.5-11.4,2.4c-19.1,12.1-38,16.3-57,12.5
				c16.4,14.9,30.4,33.2,41.9,55c9,17.2,9.4,35.3,1.1,51.8c37.2-7.8,67-28.5,89.6-62.1C828.6,566.3,828.7,562.7,826.4,558.3z"/>
		</g>
	</g>
	<g class="st2">
		
			<image style="overflow:visible;opacity:0.25;" width="383" height="383" xlink:href="90A9D644.png"  transform="matrix(1 0 0 1 565 293)">
		</image>
		<g>
			<path class="st3" d="M709.6,505c38.2-1.5,69.1-34.6,67.6-72.3c-1.6-40.4-34.2-70.5-74.5-68.8c-36.8,1.5-68.1,34.9-66.7,71.3
				C637.5,475.9,669.8,506.5,709.6,505z"/>
		</g>
	</g>
	<g class="st2">
		
			<image style="overflow:visible;opacity:0.25;" width="375" height="363" xlink:href="90A9D64C.png"  transform="matrix(1 0 0 1 102 440)">
		</image>
		<g>
			<path class="st3" d="M249.8,513.2c-3.1-2-7.8-3.1-11.4-2.4c-29.4,5.1-50.9,21.1-64.8,47.5c-2.3,4.4-2.2,8,0.6,12.2
				c22.6,33.6,52.4,54.3,89.6,62.1c-8.3-16.5-7.9-34.7,1.1-51.8c11.5-21.8,25.4-40.1,41.9-55C287.8,529.5,268.8,525.3,249.8,513.2z"
				/>
		</g>
	</g>
	<g class="st2">
		
			<image style="overflow:visible;opacity:0.25;" width="383" height="383" xlink:href="90A9D64D.png"  transform="matrix(1 0 0 1 152 293)">
		</image>
		<g>
			<path class="st3" d="M290.4,505c39.8,1.5,72.1-29.1,73.6-69.8c1.4-36.4-29.9-69.8-66.7-71.3c-40.3-1.6-72.9,28.5-74.5,68.8
				C221.3,470.4,252.3,503.5,290.4,505z"/>
		</g>
	</g>
</g>
<path class="st5" d="M583.8,721.9c-5.5-1.8-11.3-3.3-17.3-4.3c-4.3-0.7-10,0.5-13.7,3c-35.2,22.3-70.1,22.5-105-0.1
	c-7.4-4.8-14.7-3.3-22-1.5c-32.3,8.3-55.9,27.6-71,57.4c-2,3.9-1.7,7.2,0.7,10.9c34,52.6,82.4,79.3,144.1,81.7
	c57.3-1.9,102.5-24.3,136.2-67.9c2.8-3.6,5.5-7.5,8.2-11.4c3.4-5,3.5-9.4,0.7-14.7C630.7,748.6,610.6,730.7,583.8,721.9z"/>
<path class="st5" d="M503.6,710.7c46.1-1.8,83.4-41.7,81.6-87.3c-1.9-48.7-41.3-85-89.9-83.1c-44.4,1.8-82.2,42.1-80.5,86.1
	C416.6,675.6,455.6,712.5,503.6,710.7z"/>
<path class="st5" d="M733.8,746.3c-10-18.9-25.4-30.4-46.4-34c-2.6-0.5-5.9,0.3-8.1,1.7c-13.7,8.7-27.2,11.7-40.8,8.9
	c11.8,10.7,21.8,23.8,30,39.4c6.5,12.3,6.7,25.3,0.8,37.1c26.6-5.6,47.9-20.4,64.2-44.4C735.3,752.1,735.4,749.5,733.8,746.3z"/>
<path class="st5" d="M650.1,708.2c27.3-1,49.5-24.8,48.4-51.8c-1.2-28.9-24.5-50.5-53.3-49.3c-26.4,1.1-48.8,25-47.8,51.1
	C598.5,687.4,621.6,709.3,650.1,708.2z"/>
<path class="st5" d="M320.8,714.1c-2.2-1.4-5.6-2.2-8.1-1.7c-21,3.6-36.4,15.1-46.4,34c-1.6,3.2-1.5,5.7,0.4,8.7
	c16.2,24.1,37.5,38.9,64.2,44.4c-5.9-11.8-5.6-24.8,0.8-37.1c8.2-15.6,18.2-28.7,30-39.4C348.1,725.8,334.5,722.7,320.8,714.1z"/>
<path class="st5" d="M350,708.2c28.5,1.1,51.6-20.8,52.7-50c1-26.1-21.4-50-47.8-51.1c-28.9-1.2-52.2,20.4-53.3,49.3
	C300.5,683.4,322.7,707.2,350,708.2z"/>
<path class="st6" d="M734.9,171.5c0-24.5-13.7-40.1-36.3-40.5l0,0h-0.3c-0.4,0-0.8,0-1.3,0H301.5c-21.4,0.4-36.3,15.4-36.3,36.9
	c-0.1,190.9-0.1,381.8,0,572.7c0,22.3,15.4,37.1,38.1,37.3c12.6,0.1,25.3,0,37.9,0l0,0.1h327.2v-0.6h32.5
	c18.8,0,34.1-15.2,34.1-34.1L734.9,171.5z M584.9,482.7c0,4.3-3.4,7.7-7.7,7.7h-48.8c-9.6,0-19.2-0.1-28.8-0.1
	c-9.8,0-19.5,0.1-29.2,0.1h-47.6c-4.3,0-7.7-3.4-7.7-7.7v-56.7c0-4.3,3.4-7.7,7.7-7.7h154.4c4.3,0,7.7,3.4,7.7,7.7V482.7z
	 M584.9,338.9c0,4.3-3.5,7.7-7.7,7.7h-48.9c-9.6,0-19.2-0.1-28.8-0.1c-9.2,0-18.3,0.1-27.5,0.1h-49.2c-4.3,0-7.7-3.4-7.7-7.7v-56.7
	c0-4.3,3.5-7.7,7.7-7.7h154.4c4.3,0,7.7,3.4,7.7,7.7V338.9z"/>
<g class="st1">
	
		<image style="display:inline;overflow:visible;opacity:0.25;" width="664" height="846" xlink:href="90A9D64F.png"  transform="matrix(1 0 0 1 218 127)">
	</image>
	<g class="st2">
		<g>
			<g>
				<g>
					<g>
						<path class="st3" d="M500,197.9c-81.2,0-153.1,22.5-197.4,57.2c-8.9,7-14.1,17.7-14.1,29v105.1c0,11.3,5.1,22,14.1,29
							c44.3,34.7,116.2,57.2,197.4,57.2s153.1-22.5,197.4-57.2c8.9-7,14.1-17.7,14.1-29V284.1c0-11.3-5.1-22-14.1-29
							C653.1,220.4,581.2,197.9,500,197.9z M500,363c-94.1,0-170.1-29.1-170.1-64.8c0-35.8,76.1-64.7,170.1-64.7
							s170.1,28.9,170.1,64.7C670.1,333.9,594.1,363,500,363z"/>
					</g>
				</g>
			</g>
			<g>
				<g>
					<g>
						<path class="st3" d="M711.5,454.9v96.8c0,11.5-4.9,22.7-14,29.8c-0.1,0.1-0.1,0.1-0.2,0.2c-44.4,34.8-116.1,57.2-197.3,57.2
							s-152.8-22.4-197.3-57.2c-0.1-0.1-0.1-0.1-0.2-0.2c-9.1-7.1-14-18.3-14-29.8v-96.8c4.4,4.2,9.1,8.5,14.2,12.4
							c44.4,34.8,116.1,57.2,197.3,57.2s152.8-22.4,197.3-57.2C702.3,463.4,707,459.2,711.5,454.9z"/>
					</g>
				</g>
			</g>
			<g>
				<g>
					<g>
						<path class="st3" d="M711.5,618.2v99.6c0,10.1-4.7,19.5-12.5,25.9c-44.2,35.4-116.8,58.4-198.9,58.4s-154.7-23-198.9-58.4
							c-7.9-6.3-12.5-15.8-12.5-25.9v-99.6c42.1,41.6,121,69.6,211.5,69.6S669.3,659.9,711.5,618.2z"/>
					</g>
				</g>
			</g>
		</g>
	</g>
</g>
<text transform="matrix(1 0 0 1 135.0088 258.4932)" class="st7 st8 st9">c</text>
<g class="st1">
	
		<image style="display:inline;overflow:visible;opacity:0.25;" width="708" height="748" xlink:href="E88BF72C.png"  transform="matrix(1 0 0 1 196 176)">
	</image>
	<g class="st2">
		<g>
			<g>
				<g>
					<g>
						<g>
							<path class="st10" d="M707.2,708.7v-104c0-10.7-8.6-19.3-19.3-19.3H512.7v59.5l32.2-32.1h29.6l1.8,1.9L500.9,690l-77.2-77.2
								h33.3l32,32.1v-59.5h-177c-10.7,0-19.3,8.6-19.3,19.3v104h37.7v17.8h-37.7v8c0,10.7,8.6,19.3,19.3,19.3h106v-27.3h-46.3
								v-17.8h110.5v17.8h-46.3v27.3h134v-27.3h-46.3v-17.8H634v17.8h-46.3v27.3h100.2c10.7,0,19.3-8.6,19.3-19.3v-8h-31.9v-17.8
								H707.2z"/>
						</g>
					</g>
				</g>
			</g>
			<g>
				<g>
					<g>
						<g>
							<path class="st10" d="M635.4,338.9c-1.5,0-3.2,0-4.9,0.1c-0.9,0-1.6,0.1-2.5,0.3c-0.8,0-1.4,0-2.3,0.1
								c-1.1,0.1-2.3,0.3-3.4,0.5c-0.5,0-0.9,0-1.4,0.1c-1.3,0.3-2.7,0.5-3.9,0.8c-0.3,0-0.5,0-0.8,0.1c-1.5,0.3-2.8,0.6-4.3,0.9
								c-0.1,0-0.1,0-0.1,0c-4.7,1.3-9.1,2.8-13.4,4.4v-1.6c0-54.4-44-98.4-98.4-98.4c-54.3,0-98.4,44-98.4,98.4
								c0,0.5,0.1,1.1,0.1,1.8c-11.5-4.7-24-7.5-37.2-7.5c-54.4,0-98.5,44.1-98.5,98.4c0,54.4,44.1,98.5,98.5,98.5h68.8h51.8h32
								h49.6h73.5v-0.1c1.4-0.1,2.9-0.3,4.2-0.4h0.6c1.4-0.1,2.7-0.4,3.9-0.5c0.4-0.1,0.8-0.1,1-0.1c1.1-0.3,2.4-0.3,3.5-0.5
								c0.4-0.1,0.9-0.1,1.3-0.3c1.1-0.3,2.1-0.5,3.4-0.8c0.4-0.1,0.9-0.3,1.3-0.4c1-0.3,2.2-0.5,3.2-0.9c0.5-0.1,1-0.3,1.5-0.4
								c1-0.3,1.9-0.6,3-0.9c0.5-0.3,0.9-0.4,1.4-0.5c1-0.4,2-0.8,2.9-1.3c0.5-0.1,1-0.4,1.5-0.4c1-0.5,1.9-0.9,2.8-1.3
								c0.5-0.3,1.1-0.5,1.5-0.8c0.9-0.5,1.9-0.9,2.7-1.3c0.5-0.3,1-0.5,1.6-0.8c0.9-0.5,1.6-1,2.5-1.5c0.5-0.3,1-0.5,1.5-0.8
								c0.8-0.5,1.6-1.1,2.4-1.6c0.6-0.3,1-0.6,1.5-0.9c0.8-0.5,1.6-1,2.3-1.6c0.5-0.4,1-0.8,1.6-1.1c0.8-0.4,1.4-1,2.1-1.5
								c0.5-0.5,1-0.9,1.5-1.3c0.6-0.5,1.4-1.1,2-1.6c0.5-0.5,1.1-0.9,1.5-1.4c0.6-0.5,1.3-1.1,2-1.8c0.5-0.5,1-0.9,1.4-1.4
								c0.6-0.5,1.3-1.1,1.9-1.8c0.5-0.5,0.9-1.1,1.4-1.5c0.6-0.6,1.1-1.3,1.8-1.9c0.5-0.6,0.9-1,1.3-1.5c0.6-0.8,1.1-1.4,1.8-2
								c0.4-0.5,0.8-1.1,1.3-1.6c0.5-0.8,1-1.4,1.5-2c0.5-0.6,0.8-1.3,1.3-1.9c0.4-0.6,0.9-1.3,1.4-1.9c0.4-0.6,0.9-1.4,1.1-1.9
								c0.5-0.6,0.9-1.4,1.3-2.1c0.5-0.6,0.9-1.3,1.3-1.9c0.3-0.8,0.6-1.4,1-2c0.4-0.8,0.8-1.5,1.1-2.1c0.4-0.6,0.8-1.4,1-2.1
								c0.4-0.8,0.6-1.4,1-2.1c0.3-0.6,0.6-1.4,1-2c0.3-0.8,0.6-1.6,0.9-2.4c0.1-0.6,0.5-1.4,0.8-2.1c0.3-0.8,0.5-1.4,0.8-2.3
								c0.3-0.8,0.5-1.5,0.8-2.1c0.3-0.8,0.5-1.6,0.8-2.5c0.1-0.6,0.3-1.4,0.5-2.2c0.3-0.9,0.4-1.6,0.6-2.5c0.1-0.8,0.3-1.5,0.5-2
								c0.1-1,0.3-1.9,0.5-2.8c0.1-0.6,0.3-1.4,0.4-2.2c0.1-0.9,0.3-1.9,0.4-2.9c0-0.6,0-1.3,0.1-1.9c0-1.1,0.1-2.2,0.3-3.2
								c0-0.6,0-1.3,0.1-1.8c0-1.6,0.1-3.3,0.1-5.1C734,383,689.8,338.9,635.4,338.9z"/>
						</g>
					</g>
				</g>
			</g>
		</g>
	</g>
</g>
<g>
	
		<image style="overflow:visible;opacity:0.25;" width="770" height="734" xlink:href="E88BF72B.png"  transform="matrix(1 0 0 1 165 183)">
	</image>
	<g>
		<g>
			<g>
				<g>
					<g>
						<g>
							<path class="st10" d="M765,469.7c0,2-0.1,3.9-0.1,5.6c-0.1,0.7-0.1,1.4-0.1,2.1c-0.1,1.1-0.1,2.3-0.1,3.6
								c-0.1,0.7-0.3,1.4-0.3,2.1c-0.1,1.1-0.3,2.1-0.4,3.3c-0.1,0.9-0.3,1.7-0.4,2.3c-0.3,1.1-0.4,2.1-0.6,3.3
								c-0.3,0.6-0.4,1.4-0.6,2.3c-0.3,1-0.4,1.9-0.7,2.9c-0.3,0.9-0.3,1.6-0.6,2.4c-0.3,1-0.6,2-0.9,2.7c-0.3,0.9-0.6,1.7-0.9,2.6
								c-0.3,0.9-0.6,1.7-0.9,2.6c-0.3,0.9-0.6,1.6-0.9,2.4c-0.3,0.9-0.7,1.9-1,2.6c-0.4,0.9-0.9,1.7-1.1,2.4
								c-0.4,0.7-0.7,1.6-1,2.4c-0.4,0.9-0.9,1.6-1.3,2.4c-0.4,0.7-0.9,1.6-1.3,2.4c-0.4,0.7-0.7,1.4-1.1,2.3
								c-0.4,0.7-0.9,1.4-1.4,2.1c-0.4,0.9-0.9,1.7-1.4,2.3c-0.3,0.7-0.9,1.6-1.3,2.3c-0.6,0.7-1.1,1.4-1.6,2.1
								c-0.4,0.7-0.9,1.4-1.4,2.1c-0.6,0.7-1.1,1.4-1.7,2.3c-0.6,0.6-1,1.1-1.4,1.9c-0.7,0.7-1.3,1.4-2,2.3c-0.4,0.4-0.9,1-1.4,1.7
								c-0.7,0.7-1.3,1.4-2,2c-0.6,0.6-1,1.3-1.6,1.9c-0.7,0.7-1.4,1.4-2.1,2c-0.4,0.6-1,1-1.6,1.6c-0.9,0.7-1.6,1.3-2.1,2
								c-0.6,0.6-1.3,1-1.9,1.6c-0.7,0.6-1.4,1.1-2.3,1.9c-0.6,0.4-1.1,0.9-1.7,1.4c-0.7,0.6-1.6,1.1-2.4,1.7
								c-0.7,0.4-1.3,0.9-1.7,1.3c-0.9,0.7-1.9,1.3-2.7,1.7c-0.4,0.4-1,0.9-1.7,1.1c-0.9,0.6-1.9,1.3-2.7,1.9
								c-0.6,0.1-1.1,0.4-1.7,0.9c-1,0.6-1.9,1.1-2.9,1.7c-0.7,0.3-1.3,0.6-1.7,0.9c-1,0.4-2.2,0.9-3.2,1.4
								c-0.4,0.3-1.1,0.6-1.7,0.9c-1,0.4-2,0.9-3.2,1.3c-0.6,0.1-1.1,0.4-1.7,0.6c-1,0.6-2.1,1-3.3,1.4c-0.4,0.1-1,0.3-1.6,0.6
								c-1.3,0.3-2.3,0.6-3.4,1c-0.6,0.1-1.1,0.3-1.7,0.4c-1.1,0.4-2.4,0.7-3.6,1c-0.4,0.1-1,0.3-1.4,0.4c-1.4,0.3-2.6,0.6-3.9,0.9
								c-0.4,0.1-1,0.1-1.4,0.1c-1.3,0.3-2.7,0.4-4,0.7c-0.3,0-0.7,0-1.1,0.1c-1.4,0.1-2.9,0.4-4.4,0.6h-0.6
								c-1.6,0.1-3.2,0.3-4.9,0.4v0.1H519.5V454.8l49.6,49.4h45.6l2.7-2.9l-115.9-116L382.7,504.2H434l49.3-49.4v126.5H346.6
								c-61.6,0-111.6-50-111.6-111.6c0-61.6,50-111.4,111.6-111.4c14.9,0,29.1,3,42.1,8.5c0-0.7-0.1-1.4-0.1-2.1
								c0-61.5,50-111.3,111.4-111.3c61.6,0,111.4,49.8,111.4,111.3v2c4.9-2,9.9-3.6,15.2-5c0,0,0.1,0,0.3,0c1.6-0.4,3.2-0.7,4.7-1
								c0.3-0.1,0.6-0.1,0.9-0.1c1.4-0.3,3-0.6,4.6-0.9c0.4-0.1,0.9-0.1,1.4-0.1c1.3-0.3,2.6-0.4,3.9-0.6c1-0.1,1.7-0.1,2.6-0.1
								c1-0.1,2-0.3,2.9-0.3c2-0.1,3.9-0.1,5.7-0.1C715,358.2,765,408.1,765,469.7z"/>
						</g>
					</g>
				</g>
			</g>
			<g>
				<g>
					<g>
						<g>
							<path class="st10" d="M712.9,608.8H287.2c-12.1,0-21.8,9.7-21.8,21.8V725c0,12.1,9.7,21.8,21.8,21.8h425.7
								c12.1,0,21.8-9.7,21.8-21.8v-94.4C734.7,618.5,725,608.8,712.9,608.8z M342.1,715.3c-18.4,0-33.5-15.1-33.5-33.7
								s15.1-33.5,33.5-33.5c18.6,0,33.7,14.9,33.7,33.5S360.7,715.3,342.1,715.3z M453,715.3c-18.6,0-33.7-15.1-33.7-33.7
								s15.1-33.5,33.7-33.5s33.5,14.9,33.5,33.5S471.6,715.3,453,715.3z"/>
						</g>
					</g>
				</g>
			</g>
		</g>
	</g>
</g>
<g>
	<g>
		<g>
			<path class="st10" d="M205.4,235.9c-9.7-5.2-17.3-12.3-22.7-21.5c-5.4-9.2-8.2-19.6-8.2-31.2c0-11.6,2.7-22,8.2-31.1
				c5.4-9.1,13-16.2,22.6-21.4c9.6-5.2,20.6-7.7,33-7.7c11.6,0,21.8,2.3,30.5,7c8.7,4.7,15.3,11.5,19.7,20.3l-21.2,12.4
				c-3.4-5.4-7.6-9.5-12.7-12.2c-5.1-2.7-10.6-4.1-16.6-4.1c-10.3,0-18.8,3.3-25.6,10c-6.8,6.7-10.1,15.6-10.1,26.8
				c0,11.2,3.4,20.1,10,26.8s15.2,10,25.7,10c6,0,11.6-1.3,16.6-4.1c5.1-2.7,9.3-6.8,12.7-12.2l21.2,12.4
				c-4.6,8.8-11.2,15.6-20,20.4c-8.7,4.8-18.9,7.2-30.3,7.2C226,243.6,215.1,241.1,205.4,235.9z"/>
		</g>
	</g>
</g>
</svg>
