<?xml version="1.0" encoding="utf-8"?>
<!-- Generator: Adobe Illustrator 23.0.2, SVG Export Plug-In . SVG Version: 6.00 Build 0)  -->
<svg version="1.1" id="Calque_1" xmlns="http://www.w3.org/2000/svg" xmlns:xlink="http://www.w3.org/1999/xlink" x="0px" y="0px"
	 viewBox="0 0 1000 1000" style="enable-background:new 0 0 1000 1000;" xml:space="preserve">
<style type="text/css">
	.st0{fill:#20CEC9;}
	.st1{display:none;}
	.st2{display:inline;}
	.st3{fill:#FFFFFF;}
	.st4{fill:#7529E2;}
</style>
<path class="st0" d="M893.2,1000H106.8C47.8,1000,0,952.2,0,893.2V106.8C0,47.8,47.8,0,106.8,0h786.4c59,0,106.8,47.8,106.8,106.8
	v786.4C1000,952.2,952.2,1000,893.2,1000z"/>
<g class="st1">
	
		<image style="display:inline;overflow:visible;opacity:0.12;" width="560" height="384" xlink:href="64E3F43F.png"  transform="matrix(1.5047 0 0 1.5047 121.8546 248.2166)">
	</image>
	<g class="st2">
		<path class="st3" d="M697.3,411.4c-2.5,0-5,0.1-7.4,0.2c-1.3,0.1-2.5,0.2-3.8,0.3c-1.2,0.1-2.3,0.1-3.5,0.3
			c-1.7,0.2-3.4,0.4-5.2,0.6c-0.7,0.1-1.3,0.2-2,0.2c-2,0.3-4,0.7-6,1c-0.3,0.1-0.7,0.1-1,0.2c-2.2,0.4-4.3,0.9-6.5,1.5
			c-0.1,0-0.3,0.1-0.4,0.1c-6.8,1.7-13.4,3.9-19.9,6.5c0-0.9,0.1-1.7,0.1-2.6c0-81.1-65.7-146.8-146.8-146.8
			s-146.8,65.7-146.8,146.8c0,0.9,0.2,1.8,0.2,2.7c-17.2-7-35.9-11-55.6-11c-81.1,0-146.8,65.7-146.8,146.8s65.7,146.8,146.8,146.8
			h411.5v-0.2c2.2-0.1,4.3-0.3,6.4-0.5c0.3,0,0.6,0,0.9-0.1c2-0.2,3.9-0.4,5.8-0.7c0.5-0.1,1-0.1,1.4-0.2c1.8-0.3,3.6-0.6,5.4-0.9
			c0.6-0.1,1.2-0.2,1.7-0.3c1.7-0.3,3.4-0.7,5.1-1.1c0.7-0.2,1.3-0.3,2-0.5c1.6-0.4,3.2-0.9,4.8-1.3c0.7-0.2,1.4-0.4,2.1-0.6
			c1.5-0.5,3.1-1,4.6-1.5c0.7-0.2,1.4-0.5,2.2-0.7c1.5-0.5,2.9-1.1,4.4-1.7c0.7-0.3,1.5-0.6,2.2-0.9c1.4-0.6,2.8-1.2,4.2-1.8
			c0.8-0.3,1.5-0.7,2.3-1c1.3-0.6,2.7-1.3,4-2c0.8-0.4,1.5-0.8,2.3-1.2c1.3-0.7,2.5-1.4,3.8-2.1c0.8-0.4,1.5-0.9,2.3-1.3
			c1.2-0.7,2.4-1.5,3.6-2.2c0.8-0.5,1.6-1,2.3-1.5c1.2-0.8,2.3-1.5,3.4-2.3c0.8-0.5,1.5-1.1,2.3-1.6c1.1-0.8,2.2-1.6,3.3-2.5
			c0.8-0.6,1.5-1.2,2.3-1.8c1-0.8,2.1-1.7,3.1-2.6c0.8-0.6,1.5-1.3,2.2-1.9c1-0.9,2-1.8,2.9-2.7c0.7-0.7,1.5-1.4,2.2-2.1
			c0.9-0.9,1.8-1.8,2.7-2.7c0.7-0.7,1.4-1.5,2.1-2.2c0.9-0.9,1.7-1.9,2.6-2.8c0.7-0.8,1.4-1.6,2.1-2.4c0.8-1,1.6-1.9,2.4-2.9
			c0.7-0.8,1.3-1.7,2-2.5c0.8-1,1.5-2,2.2-2.9c0.7-0.9,1.3-1.8,1.9-2.7c0.7-1,1.4-2,2.1-3c0.6-0.9,1.2-1.9,1.8-2.8
			c0.6-1,1.3-2,1.9-3.1c0.6-1,1.1-2,1.7-3c0.6-1,1.2-2.1,1.7-3.1c0.5-1,1.1-2.1,1.6-3.1c0.5-1.1,1.1-2.1,1.6-3.2
			c0.5-1.1,1-2.1,1.5-3.2c0.5-1.1,1-2.1,1.4-3.2c0.5-1.1,0.9-2.2,1.3-3.4c0.4-1.1,0.8-2.1,1.2-3.2c0.4-1.2,0.8-2.3,1.2-3.5
			c0.4-1.1,0.7-2.2,1.1-3.2c0.4-1.2,0.7-2.4,1-3.6c0.3-1.1,0.6-2.2,0.9-3.2c0.3-1.3,0.6-2.5,0.9-3.8c0.2-1.1,0.5-2.1,0.7-3.2
			c0.3-1.3,0.5-2.7,0.7-4c0.2-1,0.4-2.1,0.5-3.1c0.2-1.4,0.4-2.9,0.5-4.3c0.1-1,0.3-1.9,0.4-2.9c0.2-1.6,0.3-3.2,0.4-4.8
			c0.1-0.9,0.1-1.7,0.2-2.6c0.1-2.5,0.2-4.9,0.2-7.4C844.1,477.1,778.4,411.4,697.3,411.4z"/>
	</g>
</g>
<g class="st1">
	
		<image style="display:inline;overflow:visible;opacity:0.12;" width="196" height="238" xlink:href="64E3F43D.png"  transform="matrix(1.5047 0 0 1.5047 356.591 312.9196)">
	</image>
	<g class="st2">
		<path class="st4" d="M609.8,644c-76.5,0-153.1,0-229.6,0c-11.3-4.7-13.8-8.5-13.8-21c0-46.2,0-92.4,0-138.6c0-1.3,0-2.5,0.1-3.8
			c0.7-8.5,6.3-14.7,14.8-15.6c4.7-0.5,9.4-0.2,14.1-0.4c1.1,0,2.2-0.1,3.5-0.2c0-1.5,0-2.6,0-3.8c0-13.5,0-27,0-40.5
			c0.1-30.6,11.5-56.3,35.2-75.4c28.3-22.8,60.2-28,94.6-15.8c35.7,12.7,61.2,48,62.2,85.9c0.4,15.3,0.2,30.5,0.2,45.8
			c0,1.2,0,2.4,0,4c5.2,0,10-0.1,14.8,0c10.5,0.2,17.6,6.9,17.6,17.2c0.1,48.3,0.1,96.6,0,144.9c0,7.1-3.2,12.4-9.7,15.6
			C612.6,643,611.2,643.4,609.8,644z M439.2,464.4c37.4,0,74.4,0,111.4,0c0-16.8,0.8-33.3-0.2-49.7c-1.7-27.2-23.5-49.1-49.5-51.2
			c-28.8-2.3-53.3,14.7-59.8,42.3c-1.9,7.9-1.6,16.4-1.8,24.6C439,441.6,439.2,452.9,439.2,464.4z M476.9,575.6
			c0,4.6-0.1,9.2,0,13.8c0.2,8.2,4.9,14.9,12.1,17.4c12,4.2,24-4.4,24.2-17.5c0.2-9,0-18,0.1-27c0-1.3,0.6-2.8,1.5-3.7
			c8.6-8.6,11.6-18.8,7.8-30.4c-3.9-12.2-12.7-19-25.3-20.1c-11.6-1-20.9,3.7-27,13.7c-6.5,10.8-6.7,22.4,1.4,32.2
			c4.5,5.4,5.6,10.6,5.2,16.9C476.8,572.4,476.9,574,476.9,575.6z"/>
	</g>
</g>
<g>
	<g>
		
			<image style="overflow:visible;opacity:0.25;" width="650" height="453" xlink:href="64E3F443.png"  transform="matrix(1 0 0 1 225 447)">
		</image>
		<g>
			<path class="st3" d="M617,524.2c-7.7-2.5-15.8-4.6-24.2-6c-6-1-13.9,0.8-19.2,4.1c-49.1,31.2-97.9,31.5-146.6-0.2
				c-10.3-6.8-20.6-4.6-30.7-2.1c-45.2,11.6-78.1,38.6-99.2,80.2c-2.7,5.4-2.4,10,0.9,15.2c47.4,73.4,115,110.8,201.2,114.1
				c80-2.6,143.1-34,190.2-94.8c3.9-5.1,7.7-10.4,11.5-16c4.7-6.9,4.9-13.1,0.9-20.5C682.5,561.4,654.4,536.4,617,524.2z"/>
		</g>
	</g>
	<g>
		
			<image style="overflow:visible;opacity:0.25;" width="480" height="479" xlink:href="64E3F445.png"  transform="matrix(1 0 0 1 310 200)">
		</image>
		<g>
			<path class="st3" d="M505,508.4c64.3-2.5,116.5-58.3,114-121.9c-2.7-68-57.6-118.8-125.6-116C431.3,273,378.7,329.4,381,390.7
				C383.6,459.4,437.9,511,505,508.4z"/>
		</g>
	</g>
	<g>
		
			<image style="overflow:visible;opacity:0.25;" width="375" height="363" xlink:href="64E3F447.png"  transform="matrix(1 0 0 1 623 440)">
		</image>
		<g>
			<path class="st3" d="M826.4,558.3c-13.9-26.4-35.4-42.4-64.8-47.5c-3.6-0.7-8.3,0.5-11.4,2.4c-19.1,12.1-38,16.3-57,12.5
				c16.4,14.9,30.4,33.2,41.9,55c9,17.2,9.4,35.3,1.1,51.8c37.2-7.8,67-28.5,89.6-62.1C828.6,566.3,828.7,562.7,826.4,558.3z"/>
		</g>
	</g>
	<g>
		
			<image style="overflow:visible;opacity:0.25;" width="383" height="383" xlink:href="64E3F444.png"  transform="matrix(1 0 0 1 565 293)">
		</image>
		<g>
			<path class="st3" d="M709.6,505c38.2-1.5,69.1-34.6,67.6-72.3c-1.6-40.4-34.2-70.5-74.5-68.8c-36.8,1.5-68.1,34.9-66.7,71.3
				C637.5,475.9,669.8,506.5,709.6,505z"/>
		</g>
	</g>
	<g>
		
			<image style="overflow:visible;opacity:0.25;" width="375" height="363" xlink:href="64E3F44C.png"  transform="matrix(1 0 0 1 102 440)">
		</image>
		<g>
			<path class="st3" d="M249.8,513.2c-3.1-2-7.8-3.1-11.4-2.4c-29.4,5.1-50.9,21.1-64.8,47.5c-2.3,4.4-2.2,8,0.6,12.2
				c22.6,33.6,52.4,54.3,89.6,62.1c-8.3-16.5-7.9-34.7,1.1-51.8c11.5-21.8,25.4-40.1,41.9-55C287.8,529.5,268.8,525.3,249.8,513.2z"
				/>
		</g>
	</g>
	<g>
		
			<image style="overflow:visible;opacity:0.25;" width="383" height="383" xlink:href="64E3F44D.png"  transform="matrix(1 0 0 1 152 293)">
		</image>
		<g>
			<path class="st3" d="M290.4,505c39.8,1.5,72.1-29.1,73.6-69.8c1.4-36.4-29.9-69.8-66.7-71.3c-40.3-1.6-72.9,28.5-74.5,68.8
				C221.3,470.4,252.3,503.5,290.4,505z"/>
		</g>
	</g>
</g>
</svg>
