<?xml version="1.0" encoding="utf-8"?>
<!-- Generator: Adobe Illustrator 23.0.2, SVG Export Plug-In . SVG Version: 6.00 Build 0)  -->
<svg version="1.1" id="Calque_1" xmlns="http://www.w3.org/2000/svg" xmlns:xlink="http://www.w3.org/1999/xlink" x="0px" y="0px"
	 viewBox="0 0 1000 1000" style="enable-background:new 0 0 1000 1000;" xml:space="preserve">
<style type="text/css">
	.st0{display:none;fill:#F5F9FF;}
	.st1{display:none;}
	.st2{display:inline;opacity:0.75;fill:#2661E8;}
	.st3{display:inline;opacity:0.4;fill:#2661E8;}
	.st4{display:inline;fill:#2661E8;}
	.st5{opacity:0.8;fill:#0B172D;}
</style>
<circle class="st0" cx="500" cy="500" r="500"/>
<g class="st1">
	<path class="st2" d="M496.89,749.43c-22.11,0.58-35.22-7.37-48.28-15.39c-110-67.6-220.14-134.98-329.87-203
		c-36.44-22.59-46.07-49.23-29.34-74.7c18.79-28.6,75.78-46.87,101.27-31.33c79.42,48.42,158.86,96.82,237.53,146.44
		c43.7,27.57,85.93,26.75,129.02,0.2c76.83-47.33,153.61-94.75,230.63-141.77c33.16-20.24,93.41-0.94,108.4,34.49
		c10.35,24.48,1.62,44.71-19.22,57.66c-119.08,74.01-238.63,147.24-358.3,220.29C510.78,747.17,500.57,748.29,496.89,749.43z"/>
	<path class="st3" d="M493.2,956.95c-17.66,0.78-32.42-7.19-46.67-15.93C337.6,874.15,228.61,807.37,120.04,739.91
		c-27.55-17.12-50.48-38.9-30.07-74.88c16.95-29.88,75.33-47.38,101.45-31.48c77.13,46.97,154.65,93.38,230.45,142.43
		c47.8,30.94,92.91,30.71,140.23,1.26c73.13-45.52,146.53-90.61,220.12-135.39c37.13-22.59,79.57-13.86,106.25,20.59
		c14.86,19.18,15.34,38.72-0.68,56.77c-8.13,9.17-18.56,16.77-29.07,23.28c-105.12,65.11-210.45,129.88-315.8,194.64
		C527.53,946.59,512.07,956.16,493.2,956.95z"/>
	<path class="st4" d="M875.28,227.13c-107.83-57.5-216.41-113.51-323.91-171.6c-29.88-16.19-55.59-17.03-85.96-0.58
		c-108.58,58.92-218.33,115.68-327.58,173.6c-53.25,28.21-54.17,66.1-1.92,98.48c107.5,66.52,215.41,132.29,322.91,198.8
		c15.69,9.76,31.3,17.86,53.42,16.61c16.28,1.75,31.38-8.35,46.91-17.86c106.41-65.6,213.08-130.87,319.41-196.63
		C932.95,294.23,931.87,257.26,875.28,227.13z M572.4,381.95c-18.78-21.37-52.33-55.59-69.02-77.12
		c-10.77-14.02-28.46-19.86-57.42-19.86c-38.98,0.08-71.11-13.6-80.46-32.72c-9.43-19.45,6.34-40.48,37.89-50.49
		c33.97-10.77,75.2-8.93,104.41,5.09c22.03,10.43,33.13,23.95,26.79,39.06c-7.09,16.69,3.09,27.46,30.05,36.31
		c36.39,11.85,71.28,24.87,108.25,37.72L572.4,381.95z"/>
	<path class="st4" d="M672.89,319.94L572.4,381.95c-18.78-21.37-52.33-55.59-69.02-77.12c-10.77-14.02-28.46-19.86-57.42-19.86
		c-38.98,0.08-71.11-13.6-80.46-32.72c-9.43-19.45,6.34-40.48,37.89-50.49c33.97-10.77,75.2-8.93,104.41,5.09
		c22.03,10.43,33.13,23.95,26.79,39.06c-7.09,16.69,3.09,27.46,30.05,36.31C601.03,294.07,635.92,307.09,672.89,319.94z"/>
</g>
<g>
	<path class="st5" d="M501.35,973c-178.79-5.63-316.65-81.21-415.41-228.26c-9.66-14.38-10.04-27.04-2.04-42.24
		c48.24-91.65,122.82-147.56,224.89-165.05c12.45-2.13,28.68,1.64,39.47,8.49c101.15,64.23,201.84,64.89,302.16-0.39
		c21.32-13.87,42.24-9.48,63.22-4.1c93.06,23.88,160.95,79.38,204.29,165.14c5.67,11.23,5.01,20.76-1.91,31.46
		C818.22,889.28,678.91,966.35,501.35,973z"/>
	<path class="st5" d="M745.22,274.9c-5.32,141.53-117.34,247.85-255.56,242.56c-132.55-5.08-240.09-120.09-234.86-251.18
		c5.58-140.18,118.71-244.71,258.71-239.05C641.41,32.39,749.97,148.43,745.22,274.9z"/>
</g>
</svg>
