<?xml version="1.0" encoding="utf-8"?>
<!-- Generator: Adobe Illustrator 23.0.2, SVG Export Plug-In . SVG Version: 6.00 Build 0)  -->
<svg version="1.1" id="Calque_1" xmlns="http://www.w3.org/2000/svg" xmlns:xlink="http://www.w3.org/1999/xlink" x="0px" y="0px"
	 viewBox="0 0 1000 1000" style="enable-background:new 0 0 1000 1000;" xml:space="preserve">
<style type="text/css">
	.st0{fill:#EDF4F9;}
	.st1{display:none;}
	.st2{display:inline;opacity:0.75;fill:#2661E8;}
	.st3{display:inline;opacity:0.4;fill:#2661E8;}
	.st4{display:inline;fill:#2661E8;}
	.st5{fill:#48E528;}
	.st6{opacity:0.5;fill:#48E528;}
</style>
<circle class="st0" cx="500" cy="500" r="500"/>
<g class="st1">
	<path class="st2" d="M496.89,749.43c-22.11,0.58-35.22-7.37-48.28-15.39c-110-67.6-220.14-134.98-329.87-203
		c-36.44-22.59-46.07-49.23-29.34-74.7c18.79-28.6,75.78-46.87,101.27-31.33c79.42,48.42,158.86,96.82,237.53,146.44
		c43.7,27.57,85.93,26.75,129.02,0.2c76.83-47.33,153.61-94.75,230.63-141.77c33.16-20.24,93.41-0.94,108.4,34.49
		c10.35,24.48,1.62,44.71-19.22,57.66c-119.08,74.01-238.63,147.24-358.3,220.29C510.78,747.17,500.57,748.29,496.89,749.43z"/>
	<path class="st3" d="M493.2,956.95c-17.66,0.78-32.42-7.19-46.67-15.93C337.6,874.15,228.61,807.37,120.04,739.91
		c-27.55-17.12-50.48-38.9-30.07-74.88c16.95-29.88,75.33-47.38,101.45-31.48c77.13,46.97,154.65,93.38,230.45,142.43
		c47.8,30.94,92.91,30.71,140.23,1.26c73.13-45.52,146.53-90.61,220.12-135.39c37.13-22.59,79.57-13.86,106.25,20.59
		c14.86,19.18,15.34,38.72-0.68,56.77c-8.13,9.17-18.56,16.77-29.07,23.28c-105.12,65.11-210.45,129.88-315.8,194.64
		C527.53,946.59,512.07,956.16,493.2,956.95z"/>
	<path class="st4" d="M875.28,227.13c-107.83-57.5-216.41-113.51-323.91-171.6c-29.88-16.19-55.59-17.03-85.96-0.58
		c-108.58,58.92-218.33,115.68-327.58,173.6c-53.25,28.21-54.17,66.1-1.92,98.48c107.5,66.52,215.41,132.29,322.91,198.8
		c15.69,9.76,31.3,17.86,53.42,16.61c16.28,1.75,31.38-8.35,46.91-17.86c106.41-65.6,213.08-130.87,319.41-196.63
		C932.95,294.23,931.87,257.26,875.28,227.13z M572.4,381.95c-18.78-21.37-52.33-55.59-69.02-77.12
		c-10.77-14.02-28.46-19.86-57.42-19.86c-38.98,0.08-71.11-13.6-80.46-32.72c-9.43-19.45,6.34-40.48,37.89-50.49
		c33.97-10.77,75.2-8.93,104.41,5.09c22.03,10.43,33.13,23.95,26.79,39.06c-7.09,16.69,3.09,27.46,30.05,36.31
		c36.39,11.85,71.28,24.87,108.25,37.72L572.4,381.95z"/>
	<path class="st4" d="M672.89,319.94L572.4,381.95c-18.78-21.37-52.33-55.59-69.02-77.12c-10.77-14.02-28.46-19.86-57.42-19.86
		c-38.98,0.08-71.11-13.6-80.46-32.72c-9.43-19.45,6.34-40.48,37.89-50.49c33.97-10.77,75.2-8.93,104.41,5.09
		c22.03,10.43,33.13,23.95,26.79,39.06c-7.09,16.69,3.09,27.46,30.05,36.31C601.03,294.07,635.92,307.09,672.89,319.94z"/>
</g>
<path class="st5" d="M500.41,312.69c44.3-0.02,88.61-0.48,132.9,0.12c36.75,0.49,54.99,17.78,55.29,54.35
	c0.72,88.59,0.68,177.2,0.01,265.8c-0.26,34.68-17.59,54.75-52.58,56.04c-90.85,3.34-181.84,3.52-272.68-0.1
	c-35.14-1.4-51.59-21.25-51.81-56.57c-0.56-88.6-0.61-177.2,0.06-265.8c0.27-35.26,18.5-53.09,53.59-53.64
	C410.25,312.17,455.34,312.71,500.41,312.69z"/>
<path class="st6" d="M525.74,818.76c-0.93,12.35-1.01,24.84-3.02,37c-2.1,12.67-9.61,21.49-23.68,20.93
	c-12.89-0.51-19.55-9.26-21.49-20.85c-3.98-23.84-3.15-47.95-1.05-71.9c1.21-13.79,11.66-16.91,23.6-16.93
	c11.94-0.02,22.31,3.07,23.6,16.87c1.07,11.52,0.22,23.21,0.22,34.82C524.53,818.73,525.13,818.74,525.74,818.76z"/>
<path class="st6" d="M330.07,178.84c0-10.79-0.54-21.62,0.14-32.37c0.81-12.82,6.63-22.64,20.75-23.43
	c15.41-0.85,23.07,9.27,23.87,22.81c1.35,23.05,1.18,46.23,0.6,69.33c-0.34,13.52-9.77,18.04-22.2,17.99
	c-12.1-0.05-21.9-3.66-22.89-17.35c-0.88-12.27-0.19-24.65-0.19-36.98C330.14,178.84,330.11,178.84,330.07,178.84z"/>
<path class="st6" d="M670.46,181.26c0,10.09,0.1,20.18-0.02,30.27c-0.2,15.79-9.11,21.79-24.01,21.68
	c-14.52-0.11-21.54-7.47-21.64-21.49c-0.14-20.95-0.45-41.93,0.48-62.85c0.64-14.43,6.59-26.44,23.65-25.79
	c15.62,0.6,20.69,11.91,21.31,25.59c0.5,10.84,0.1,21.73,0.1,32.59C670.38,181.26,670.42,181.26,670.46,181.26z"/>
<path class="st6" d="M329.67,820.15c0-10.07,0-20.14,0-30.21c0-15.21,7.33-22.82,22.81-22.77c15.16,0.05,23.28,7.07,23.38,22.42
	c0.12,19.36,0.49,38.75-0.2,58.09c-0.53,14.88-4.81,28.88-23.07,29.09c-18.53,0.21-22.36-13.58-22.86-28.73
	C329.42,838.75,329.67,829.44,329.67,820.15z"/>
<path class="st6" d="M669.83,821.31c0,11.59,0.74,23.24-0.2,34.75c-0.99,12.13-7.86,20.28-20.73,20.9
	c-12.91,0.62-20.75-6.89-22.54-18.89c-3.68-24.57-2.83-49.39-0.79-74.05c1.13-13.75,11.55-16.97,23.52-16.8
	c12.74,0.18,20.74,5.87,21.15,19.3c0.35,11.59,0.07,23.2,0.07,34.79C670.14,821.31,669.99,821.31,669.83,821.31z"/>
<path class="st6" d="M521.72,180.91c0,10.04,0.15,20.08-0.04,30.11c-0.28,15.24-8.24,22.27-23.44,22.13
	c-14.15-0.13-22.07-6.88-22.22-20.89c-0.24-21.59-0.46-43.25,1.02-64.76c0.9-13.18,7.72-24.32,23.08-24.17
	c15.8,0.16,20.59,11.66,21.31,25.16c0.57,10.78,0.12,21.61,0.12,32.41C521.6,180.91,521.66,180.91,521.72,180.91z"/>
<path class="st6" d="M177.96,373.69c-10.79,0-21.62,0.54-32.37-0.14c-12.88-0.82-22.83-7.05-23.53-20.83
	c-0.71-13.92,9.17-21.17,21.5-23.11c23.71-3.74,47.7-2.7,71.54-0.92c12.33,0.92,16.4,9.77,16.5,21.17
	c0.1,11.96-2.85,22.21-16.67,23.37c-12.24,1.02-24.64,0.21-36.97,0.21C177.96,373.52,177.96,373.6,177.96,373.69z"/>
<path class="st6" d="M180.01,477.21c10.02,0,20.05-0.14,30.07,0.03c15.48,0.27,21.88,8.65,21.58,23.72
	c-0.27,14.1-6.72,21.84-20.95,21.92c-21.58,0.12-43.2,0.48-64.74-0.56c-13.64-0.66-24.34-7.75-23.83-22.91
	c0.46-13.67,10.56-20.29,23.21-21.42c11.47-1.02,23.09-0.22,34.65-0.22C180,477.59,180,477.4,180.01,477.21z"/>
<path class="st6" d="M178.57,626c10.1,0,20.2-0.04,30.3,0.01c15.19,0.08,22.69,7.37,22.81,22.95c0.12,15.84-7.84,22.85-22.81,22.85
	c-20.97,0.01-41.98,0.39-62.89-0.87c-13.67-0.83-24.43-8.27-23.86-23.43c0.53-13.92,11.03-19.96,23.85-20.87
	c10.82-0.77,21.73-0.16,32.6-0.16C178.57,626.33,178.57,626.17,178.57,626z"/>
<path class="st6" d="M820.93,626.66c11.63,0,23.33-0.85,34.86,0.23c12.87,1.2,22.38,8.06,22.18,22.22
	c-0.19,12.8-8.95,19.83-20.75,21.37c-23.91,3.12-48.02,2.49-72,0.56c-12.38-0.99-16.45-9.86-16.5-21.36
	c-0.05-12.23,3.48-22,17.33-23.01c11.57-0.84,23.24-0.17,34.87-0.17C820.93,626.55,820.93,626.61,820.93,626.66z"/>
<path class="st6" d="M820.99,374.12c-9.31,0-18.62-0.05-27.93,0.01c-15.98,0.11-24.58-6.77-24.42-23.75
	c0.15-15.86,8.33-22.53,23.19-22.47c20.16,0.07,40.38-0.46,60.46,0.96c14.11,0.99,26.62,7.58,25.52,24.29
	c-1.01,15.25-13.11,19.92-26.57,20.59c-10.06,0.5-20.16,0.1-30.24,0.1C820.99,373.94,820.99,374.03,820.99,374.12z"/>
<path class="st6" d="M820.87,523.03c-10.08,0-20.16,0.07-30.24-0.02c-15.57-0.13-22.14-8.36-21.95-23.58
	c0.18-14.25,6.8-21.94,21.02-22.1c20.93-0.22,41.88-0.48,62.79,0.34c13.57,0.54,25.16,6.72,25.26,21.91
	c0.11,16.47-12.16,22.19-26.65,23.12c-10.04,0.65-20.15,0.12-30.23,0.12C820.87,522.9,820.87,522.96,820.87,523.03z"/>
</svg>
