<?xml version="1.0" encoding="utf-8"?>
<!-- Generator: Adobe Illustrator 23.0.2, SVG Export Plug-In . SVG Version: 6.00 Build 0)  -->
<svg version="1.1" id="Calque_1" xmlns="http://www.w3.org/2000/svg" xmlns:xlink="http://www.w3.org/1999/xlink" x="0px" y="0px"
	 viewBox="0 0 1000 1000" style="enable-background:new 0 0 1000 1000;" xml:space="preserve">
<style type="text/css">
	.st0{fill:#EDF4F9;}
	.st1{display:none;}
	.st2{display:inline;opacity:0.75;fill:#2661E8;}
	.st3{display:inline;opacity:0.4;fill:#2661E8;}
	.st4{display:inline;fill:#2661E8;}
	.st5{fill:#7529E2;}
	.st6{fill:#9C72ED;}
</style>
<circle class="st0" cx="500" cy="500" r="500"/>
<g class="st1">
	<path class="st2" d="M496.89,749.43c-22.11,0.58-35.22-7.37-48.28-15.39c-110-67.6-220.14-134.98-329.87-203
		c-36.44-22.59-46.07-49.23-29.34-74.7c18.79-28.6,75.78-46.87,101.27-31.33c79.42,48.42,158.86,96.82,237.53,146.44
		c43.7,27.57,85.93,26.75,129.02,0.2c76.83-47.33,153.61-94.75,230.63-141.77c33.16-20.24,93.41-0.94,108.4,34.49
		c10.35,24.48,1.62,44.71-19.22,57.66c-119.08,74.01-238.63,147.24-358.3,220.29C510.78,747.17,500.57,748.29,496.89,749.43z"/>
	<path class="st3" d="M493.2,956.95c-17.66,0.78-32.42-7.19-46.67-15.93C337.6,874.15,228.61,807.37,120.04,739.91
		c-27.55-17.12-50.48-38.9-30.07-74.88c16.95-29.88,75.33-47.38,101.45-31.48c77.13,46.97,154.65,93.38,230.45,142.43
		c47.8,30.94,92.91,30.71,140.23,1.26c73.13-45.52,146.53-90.61,220.12-135.39c37.13-22.59,79.57-13.86,106.25,20.59
		c14.86,19.18,15.34,38.72-0.68,56.77c-8.13,9.17-18.56,16.77-29.07,23.28c-105.12,65.11-210.45,129.88-315.8,194.64
		C527.53,946.59,512.07,956.16,493.2,956.95z"/>
	<path class="st4" d="M875.28,227.13c-107.83-57.5-216.41-113.51-323.91-171.6c-29.88-16.19-55.59-17.03-85.96-0.58
		c-108.58,58.92-218.33,115.68-327.58,173.6c-53.25,28.21-54.17,66.1-1.92,98.48c107.5,66.52,215.41,132.29,322.91,198.8
		c15.69,9.76,31.3,17.86,53.42,16.61c16.28,1.75,31.38-8.35,46.91-17.86c106.41-65.6,213.08-130.87,319.41-196.63
		C932.95,294.23,931.87,257.26,875.28,227.13z M572.4,381.95c-18.78-21.37-52.33-55.59-69.02-77.12
		c-10.77-14.02-28.46-19.86-57.42-19.86c-38.98,0.08-71.11-13.6-80.46-32.72c-9.43-19.45,6.34-40.48,37.89-50.49
		c33.97-10.77,75.2-8.93,104.41,5.09c22.03,10.43,33.13,23.95,26.79,39.06c-7.09,16.69,3.09,27.46,30.05,36.31
		c36.39,11.85,71.28,24.87,108.25,37.72L572.4,381.95z"/>
	<path class="st4" d="M672.89,319.94L572.4,381.95c-18.78-21.37-52.33-55.59-69.02-77.12c-10.77-14.02-28.46-19.86-57.42-19.86
		c-38.98,0.08-71.11-13.6-80.46-32.72c-9.43-19.45,6.34-40.48,37.89-50.49c33.97-10.77,75.2-8.93,104.41,5.09
		c22.03,10.43,33.13,23.95,26.79,39.06c-7.09,16.69,3.09,27.46,30.05,36.31C601.03,294.07,635.92,307.09,672.89,319.94z"/>
</g>
<g>
	<path class="st5" d="M904.25,721.46c1.14-1.22,2.26-2.44,3.37-3.69c0.91-1.02,1.8-2.06,2.69-3.11c1.06-1.25,2.11-2.5,3.14-3.78
		c0.88-1.09,1.74-2.2,2.6-3.31c0.98-1.27,1.96-2.55,2.91-3.85c0.85-1.16,1.68-2.34,2.5-3.51c0.91-1.3,1.81-2.6,2.69-3.92
		c0.81-1.22,1.59-2.46,2.37-3.7c0.84-1.33,1.67-2.65,2.48-4c0.76-1.27,1.49-2.56,2.22-3.85c0.77-1.35,1.53-2.71,2.27-4.08
		c0.71-1.33,1.38-2.68,2.06-4.03c0.69-1.38,1.39-2.75,2.05-4.14c0.66-1.39,1.27-2.79,1.9-4.2c0.62-1.39,1.25-2.77,1.83-4.18
		c0.6-1.45,1.16-2.92,1.73-4.39c0.54-1.4,1.1-2.79,1.61-4.21c0.54-1.51,1.04-3.03,1.54-4.56c0.47-1.41,0.95-2.81,1.39-4.24
		c0.48-1.57,0.91-3.16,1.35-4.75c0.39-1.41,0.81-2.81,1.17-4.23c0.42-1.65,0.78-3.32,1.15-4.98c0.31-1.39,0.65-2.76,0.93-4.16
		c0.35-1.74,0.64-3.51,0.94-5.27c0.23-1.35,0.5-2.69,0.7-4.04c0.28-1.87,0.49-3.75,0.72-5.64c0.15-1.28,0.34-2.54,0.47-3.83
		c0.21-2.08,0.34-4.18,0.48-6.28c0.07-1.11,0.19-2.21,0.25-3.33c0.16-3.22,0.25-6.46,0.25-9.73c0-105.93-85.88-191.81-191.81-191.81
		c-3.25,0-6.47,0.08-9.68,0.24c-1.67,0.08-3.32,0.24-4.98,0.37c-1.5,0.11-3.02,0.19-4.51,0.34c-2.26,0.22-4.5,0.53-6.73,0.83
		c-0.85,0.12-1.72,0.2-2.57,0.33c-2.62,0.39-5.22,0.86-7.8,1.36c-0.44,0.08-0.88,0.15-1.31,0.23c-2.84,0.56-5.65,1.21-8.44,1.89
		c-0.17,0.04-0.33,0.07-0.5,0.12c-8.91,2.22-17.56,5.07-25.92,8.49c0,0,0,0,0,0c0.02-1.12,0.08-2.23,0.08-3.35
		c0-105.93-85.88-191.81-191.81-191.81s-191.81,85.88-191.81,191.81c0,78.35,47.01,145.69,114.34,175.47l-186.72,197.3h537.46v-0.23
		c2.82-0.13,5.61-0.35,8.39-0.6c0.4-0.04,0.8-0.05,1.2-0.09c2.55-0.25,5.07-0.57,7.59-0.92c0.62-0.09,1.25-0.15,1.87-0.24
		c2.36-0.35,4.7-0.77,7.03-1.2c0.76-0.14,1.53-0.26,2.28-0.41c2.22-0.44,4.41-0.95,6.6-1.46c0.85-0.2,1.71-0.38,2.56-0.59
		c2.11-0.53,4.19-1.11,6.26-1.71c0.91-0.26,1.82-0.5,2.72-0.77c2.02-0.61,4.01-1.28,5.99-1.95c0.94-0.32,1.88-0.62,2.81-0.95
		c1.92-0.68,3.82-1.42,5.71-2.16c0.97-0.38,1.95-0.75,2.92-1.15c1.83-0.76,3.64-1.56,5.44-2.37c0.99-0.44,1.99-0.88,2.97-1.34
		c1.75-0.82,3.48-1.69,5.2-2.56c1-0.51,2.01-1.01,3-1.54c1.67-0.89,3.32-1.81,4.96-2.74c1.01-0.57,2.02-1.14,3.02-1.74
		c1.59-0.94,3.16-1.92,4.72-2.9c1.01-0.64,2.02-1.28,3.02-1.94c1.51-1,3.01-2.02,4.49-3.06c1-0.7,2-1.41,2.99-2.13
		c1.44-1.05,2.86-2.12,4.27-3.21c0.99-0.77,1.98-1.54,2.96-2.33c1.36-1.09,2.7-2.21,4.04-3.34c0.98-0.83,1.96-1.68,2.92-2.53
		c1.29-1.14,2.56-2.29,3.81-3.47c0.96-0.9,1.91-1.81,2.86-2.72c1.21-1.18,2.41-2.37,3.59-3.58
		C902.41,723.41,903.34,722.44,904.25,721.46z"/>
	<circle class="st6" cx="235.81" cy="590.48" r="191.81"/>
</g>
</svg>
