<?xml version="1.0" encoding="utf-8"?>
<!-- Generator: Adobe Illustrator 23.0.2, SVG Export Plug-In . SVG Version: 6.00 Build 0)  -->
<svg version="1.1" id="Calque_1" xmlns="http://www.w3.org/2000/svg" xmlns:xlink="http://www.w3.org/1999/xlink" x="0px" y="0px"
	 viewBox="0 0 1000 1000" style="enable-background:new 0 0 1000 1000;" xml:space="preserve">
<style type="text/css">
	.st0{fill:#0B172D;}
	.st1{display:none;}
	.st2{display:inline;}
	.st3{fill:#20CEC9;}
	.st4{fill:#FFFFFF;}
	.st5{fill:#7529E2;}
	.st6{fill:#4C9EFF;}
	.st7{display:inline;opacity:0.66;}
	.st8{display:inline;opacity:0.33;}
</style>
<g>
	<path class="st0" d="M942,1000H58c-32,0-58-26-58-58V58C0,26,26,0,58,0h884c32,0,58,26,58,58v884C1000,974,974,1000,942,1000z"/>
</g>
<g class="st1">
	
		<image style="display:inline;overflow:visible;opacity:8.000000e-02;enable-background:new    ;" width="560" height="398" xlink:href="A76E2A55.png"  transform="matrix(1 0 0 1 226 307)">
	</image>
	<g class="st2">
		<g>
			<g>
				<path class="st3" d="M596.6,520c-6.4-2.1-13-3.8-20-5c-5-0.8-11.5,0.6-15.8,3.4c-40.6,25.7-80.9,26-121-0.2
					c-8.5-5.6-17-3.8-25.4-1.7c-37.3,9.6-64.5,31.9-81.9,66.2c-2.3,4.5-2,8.3,0.8,12.6c39.2,60.6,95,91.5,166.2,94.2
					c66.1-2.2,118.2-28.1,157-78.3c3.2-4.2,6.4-8.6,9.5-13.2c3.9-5.7,4-10.9,0.8-16.9C650.8,550.7,627.5,530.1,596.6,520z"/>
			</g>
			<g>
				<path class="st3" d="M504.1,507c53.1-2,96.2-48.1,94.1-100.6c-2.2-56.2-47.6-98.1-103.7-95.8c-51.3,2.1-94.8,48.6-92.9,99.3
					C403.9,466.5,448.8,509.1,504.1,507z"/>
			</g>
			<g>
				<path class="st3" d="M769.5,548.1c-11.5-21.8-29.2-35-53.5-39.2c-3-0.5-6.8,0.4-9.4,2c-15.7,10-31.4,13.5-47.1,10.3
					c13.6,12.3,25.1,27.5,34.6,45.4c7.4,14.2,7.8,29.2,0.9,42.8c30.7-6.4,55.3-23.5,74-51.3C771.3,554.7,771.4,551.8,769.5,548.1z"
					/>
			</g>
			<g>
				<path class="st3" d="M673.1,504.1c31.5-1.2,57.1-28.5,55.8-59.7c-1.3-33.3-28.2-58.2-61.5-56.8c-30.4,1.2-56.2,28.8-55.1,58.9
					C613.6,480.1,640.2,505.4,673.1,504.1z"/>
			</g>
			<g>
				<path class="st3" d="M293.4,510.9c-2.6-1.6-6.4-2.6-9.4-2c-24.3,4.2-42,17.5-53.5,39.2c-1.9,3.6-1.8,6.6,0.5,10.1
					c18.7,27.8,43.3,44.8,74,51.3c-6.8-13.7-6.5-28.6,0.9-42.8c9.5-18,21-33.1,34.6-45.4C324.8,524.4,309.1,520.9,293.4,510.9z"/>
			</g>
			<g>
				<path class="st3" d="M327,504.1c32.9,1.3,59.5-24,60.8-57.7c1.1-30.1-24.7-57.7-55.1-58.9c-33.3-1.4-60.2,23.5-61.5,56.8
					C269.9,475.6,295.5,503,327,504.1z"/>
			</g>
		</g>
	</g>
</g>
<g class="st1">
	
		<image style="display:inline;overflow:visible;opacity:0.12;enable-background:new    ;" width="466" height="510" xlink:href="A76E2A57.png"  transform="matrix(1 0 0 1 299 277)">
	</image>
	<g class="st2">
		<g>
			<path class="st4" d="M681.9,588.5c-17.4-33.2-42.8-55.8-76.5-66.7c-6.9-2.3-14.2-4.1-21.8-5.4c-5.4-0.9-12.5,0.7-17.3,3.7
				c-44.2,28.1-88.2,28.3-132-0.2c-9.3-6.1-18.5-4.2-27.7-1.9c-40.7,10.5-70.4,34.8-89.3,72.2c-2.5,4.9-2.2,9,0.9,13.7
				c42.7,66.2,103.6,99.8,181.3,102.8c72.1-2.4,128.9-30.6,171.3-85.4c3.5-4.6,6.9-9.4,10.3-14.4
				C685.3,600.7,685.4,595.1,681.9,588.5z"/>
			<path class="st4" d="M504.5,507.6c57.9-2.2,104.9-52.5,102.7-109.8c-2.4-61.3-51.9-107-113.1-104.5
				c-55.9,2.3-103.4,53-101.3,108.3C395.1,463.4,444.1,509.9,504.5,507.6z"/>
		</g>
	</g>
</g>
<g class="st1">
	
		<image style="display:inline;overflow:visible;opacity:0.12;enable-background:new    ;" width="512" height="510" xlink:href="A76E2A52.png"  transform="matrix(1 0 0 1 276 277)">
	</image>
	<g class="st2">
		<path class="st4" d="M500,293c-114.1,0-207,92.9-207,207s92.9,207,207,207s207-92.9,207-207S614.1,293,500,293z M665.4,470.3
			h-83.7c-2.4-36.6-9.1-70.6-19.5-97.6c-5.4-13.9-11.6-25.6-18.5-34.9C605.9,354.5,653.9,406.2,665.4,470.3z M500,654.9
			c-7.3,0-19.9-10.4-31.1-39.6c-11.4-29.7-17.9-69.2-18.2-111.7h98.6c-0.3,42.5-6.8,82-18.2,111.7
			C519.9,644.5,507.3,654.9,500,654.9z M451.7,470.3c2.2-32.4,8.1-62.1,17.2-85.7c11.2-29.2,23.8-39.6,31.1-39.6
			s19.9,10.4,31.1,39.6c9,23.5,15,53.2,17.2,85.7H451.7L451.7,470.3z M456.3,337.8c-6.9,9.3-13.2,21-18.5,34.9
			c-10.4,27.1-17.1,61-19.5,97.6h-83.7C346.1,406.2,394.1,354.5,456.3,337.8z M332,503.7h85.3c0.4,46.5,7.6,90.3,20.4,123.6
			c5.4,13.9,11.6,25.6,18.5,34.9C385.9,643.3,333.7,579.6,332,503.7z M543.7,662.2c6.9-9.3,13.2-21,18.5-34.9
			c12.8-33.4,20.1-77.2,20.4-123.6H668C666.3,579.6,614.1,643.3,543.7,662.2z"/>
	</g>
</g>
<g class="st1">
	
		<image style="display:inline;overflow:visible;opacity:0.12;enable-background:new    ;" width="428" height="510" xlink:href="A76E2A53.png"  transform="matrix(1 0 0 1 318 277)">
	</image>
	<g class="st2">
		<path class="st4" d="M647.9,707c-98.6,0-197.2,0-295.8,0c-14.5-6-17.7-10.9-17.7-27c0-59.5,0-119.1,0-178.6c0-1.6,0-3.2,0.1-4.9
			c0.8-10.9,8.2-18.9,19.1-20.1c6-0.6,12.1-0.3,18.1-0.5c1.4,0,2.8-0.1,4.5-0.3c0-1.9,0-3.4,0-4.8c0-17.4,0-34.8,0-52.1
			c0.1-39.4,14.8-72.5,45.4-97.2c36.4-29.4,77.6-36.1,121.9-20.3c46,16.4,78.9,61.8,80.2,110.7c0.5,19.6,0.2,39.3,0.3,59
			c0,1.6,0,3.1,0,5.1c6.7,0,12.9-0.1,19,0c13.5,0.3,22.7,9,22.7,22.1c0.1,62.2,0.1,124.5,0,186.7c0,9.1-4.2,16-12.5,20.1
			C651.4,705.8,649.6,706.3,647.9,707z M428.1,475.7c48.2,0,95.9,0,143.5,0c0-21.6,1.1-42.9-0.3-64.1c-2.2-35-30.3-63.2-63.7-65.9
			c-37.1-3-68.7,18.9-77.1,54.5c-2.4,10.2-2.1,21.1-2.4,31.6C427.8,446.3,428.1,460.9,428.1,475.7z M476.6,618.9
			c0,5.9-0.1,11.8,0,17.8c0.3,10.6,6.3,19.2,15.5,22.4c15.5,5.4,30.9-5.6,31.2-22.6c0.2-11.6,0-23.2,0.1-34.7c0-1.6,0.8-3.7,2-4.8
			c11.1-11.1,14.9-24.2,10.1-39.1c-5-15.7-16.4-24.5-32.6-25.9c-14.9-1.3-27,4.8-34.7,17.6c-8.4,14-8.7,28.8,1.8,41.4
			c5.8,7,7.2,13.7,6.7,21.8C476.5,614.9,476.6,616.9,476.6,618.9z"/>
	</g>
</g>
<g class="st1">
	
		<image style="display:inline;overflow:visible;opacity:0.12;enable-background:new    ;" width="560" height="384" xlink:href="A76E2A5D.png"  transform="matrix(1 0 0 1 252 340)">
	</image>
	<g class="st2">
		<path class="st5" d="M634.4,448.4c-1.7,0-3.3,0-4.9,0.1c-0.8,0-1.7,0.1-2.5,0.2s-1.5,0.1-2.3,0.2c-1.2,0.1-2.3,0.3-3.4,0.4
			c-0.4,0.1-0.9,0.1-1.3,0.2c-1.3,0.2-2.7,0.4-4,0.7c-0.2,0-0.5,0.1-0.7,0.1c-1.4,0.3-2.9,0.6-4.3,1c-0.1,0-0.2,0-0.3,0.1
			c-4.5,1.1-8.9,2.6-13.2,4.3c0-0.6,0-1.1,0-1.7c0-53.9-43.7-97.6-97.6-97.6s-97.6,43.7-97.6,97.6c0,0.6,0.1,1.2,0.1,1.8
			c-11.4-4.7-23.9-7.3-37-7.3c-53.9,0-97.6,43.7-97.6,97.6s43.7,97.6,97.6,97.6H639v-0.1c1.4-0.1,2.8-0.2,4.3-0.3c0.2,0,0.4,0,0.6,0
			c1.3-0.1,2.6-0.3,3.9-0.5c0.3,0,0.6-0.1,1-0.1c1.2-0.2,2.4-0.4,3.6-0.6c0.4-0.1,0.8-0.1,1.2-0.2c1.1-0.2,2.2-0.5,3.4-0.7
			c0.4-0.1,0.9-0.2,1.3-0.3c1.1-0.3,2.1-0.6,3.2-0.9c0.5-0.1,0.9-0.3,1.4-0.4c1-0.3,2-0.7,3-1c0.5-0.2,1-0.3,1.4-0.5
			c1-0.3,1.9-0.7,2.9-1.1c0.5-0.2,1-0.4,1.5-0.6c0.9-0.4,1.8-0.8,2.8-1.2c0.5-0.2,1-0.5,1.5-0.7c0.9-0.4,1.8-0.9,2.7-1.3
			c0.5-0.3,1-0.5,1.5-0.8c0.8-0.5,1.7-0.9,2.5-1.4c0.5-0.3,1-0.6,1.5-0.9c0.8-0.5,1.6-1,2.4-1.5c0.5-0.3,1-0.7,1.5-1
			c0.8-0.5,1.5-1,2.3-1.6c0.5-0.4,1-0.7,1.5-1.1c0.7-0.5,1.5-1.1,2.2-1.6c0.5-0.4,1-0.8,1.5-1.2c0.7-0.6,1.4-1.1,2-1.7
			c0.5-0.4,1-0.8,1.5-1.3c0.7-0.6,1.3-1.2,1.9-1.8c0.5-0.5,1-0.9,1.5-1.4c0.6-0.6,1.2-1.2,1.8-1.8c0.5-0.5,1-1,1.4-1.5
			c0.6-0.6,1.2-1.2,1.7-1.9c0.5-0.5,0.9-1,1.4-1.6s1.1-1.3,1.6-1.9c0.5-0.6,0.9-1.1,1.3-1.7c0.5-0.7,1-1.3,1.5-2
			c0.4-0.6,0.8-1.2,1.3-1.8c0.5-0.7,0.9-1.3,1.4-2c0.4-0.6,0.8-1.3,1.2-1.9c0.4-0.7,0.8-1.3,1.3-2c0.4-0.7,0.8-1.3,1.1-2
			c0.4-0.7,0.8-1.4,1.2-2.1c0.4-0.7,0.7-1.4,1-2c0.3-0.7,0.7-1.4,1-2.1c0.3-0.7,0.7-1.4,1-2.1c0.3-0.7,0.6-1.4,0.9-2.1
			c0.3-0.7,0.6-1.5,0.9-2.2c0.3-0.7,0.6-1.4,0.8-2.1c0.3-0.8,0.5-1.5,0.8-2.3c0.2-0.7,0.5-1.4,0.7-2.2c0.3-0.8,0.5-1.6,0.7-2.4
			c0.2-0.7,0.4-1.4,0.6-2.2c0.2-0.8,0.4-1.7,0.6-2.5c0.2-0.7,0.3-1.4,0.5-2.1c0.2-0.9,0.3-1.8,0.5-2.7c0.1-0.7,0.3-1.4,0.4-2.1
			c0.1-1,0.3-1.9,0.4-2.9c0.1-0.7,0.2-1.3,0.2-2c0.1-1.1,0.2-2.1,0.2-3.2c0-0.6,0.1-1.1,0.1-1.7c0.1-1.6,0.1-3.3,0.1-5
			C732,492.1,688.3,448.4,634.4,448.4z"/>
	</g>
</g>
<g class="st1">
	
		<image style="display:inline;overflow:visible;opacity:0.12;enable-background:new    ;" width="394" height="460" xlink:href="A76E2A5F.png"  transform="matrix(1 0 0 1 329 296)">
	</image>
	<g class="st2">
		<g>
			<g>
				<path class="st6" d="M354,687.9c-6.4-2.9-8.2-8-8.2-14.8c0.1-115.9,0.1-231.7,0.1-347.6c0-6.9,2.3-10.9,7.1-12.8
					c7.2-2.7,14.6,2.4,14.9,10.3c0.1,3.2,0,6.4,0,9.5c0,3,0,6.1,0,9.5c1.8,0,3.2,0,4.6,0c42.8,0,85.6,0,128.5,0
					c9.9,0,13.8,3.9,13.8,13.8c0,47.1,0,94.2,0,141.3c0,9.9-3.9,13.8-13.8,13.8c-42.7,0-85.4,0-128.1,0c-1.5,0-2.9,0-5,0
					c0,1.5,0,2.9,0,4.3c0,52.6-0.1,105.2,0.1,157.8c0,6.8-1.8,11.9-8.2,14.8C357.9,687.9,355.9,687.9,354,687.9z"/>
			</g>
			<g>
				<path class="st6" d="M456.2,533c15.1,0,30.1,0.1,45-0.1c3.6,0,7.4-0.3,10.9-1.2c15.7-4.4,24.7-16.7,24.7-33.5
					c0-38.2,0-76.3,0-114.5c0-1.5,0-2.9,0-4.6c1-0.1,1.8-0.3,2.6-0.3c34.3,0,68.5,0,102.8,0c6.6,0,11.4,3.7,11.9,9.5
					c0.2,2.6-0.6,5.6-1.6,8.1c-8.4,21.2-17,42.4-25.3,63.7c-0.7,1.8-0.7,4.3,0,6.1c8.4,21.5,17,42.9,25.7,64.3c2,5.1,2.4,10-2,13.8
					c-2.1,1.8-5.4,3.2-8.2,3.2c-58.3,0.2-116.7,0.2-175,0.1C459.7,547.7,455.6,542.4,456.2,533z"/>
			</g>
		</g>
	</g>
</g>
<g class="st1">
	
		<image style="display:inline;overflow:visible;opacity:0.12;enable-background:new    ;" width="196" height="238" xlink:href="A76E2A50.png"  transform="matrix(1 0 0 1 408 383)">
	</image>
	<g class="st2">
		<path class="st4" d="M576.3,603c-50.9,0-101.7,0-152.6,0c-7.5-3.1-9.1-5.6-9.1-13.9c0-30.7,0-61.4,0-92.1c0-0.8,0-1.7,0-2.5
			c0.4-5.6,4.2-9.8,9.9-10.4c3.1-0.3,6.2-0.2,9.4-0.2c0.7,0,1.5-0.1,2.3-0.1c0-1,0-1.7,0-2.5c0-9,0-17.9,0-26.9
			c0.1-20.3,7.6-37.4,23.4-50.1c18.8-15.2,40-18.6,62.9-10.5c23.8,8.5,40.7,31.9,41.3,57.1c0.3,10.1,0.1,20.3,0.1,30.4
			c0,0.8,0,1.6,0,2.6c3.5,0,6.6,0,9.8,0c7,0.1,11.7,4.6,11.7,11.4c0.1,32.1,0,64.2,0,96.3c0,4.7-2.2,8.3-6.4,10.4
			C578.1,602.4,577.2,602.7,576.3,603z M462.9,483.7c24.9,0,49.5,0,74,0c0-11.1,0.6-22.1-0.1-33.1c-1.1-18-15.6-32.6-32.9-34
			c-19.1-1.5-35.4,9.7-39.8,28.1c-1.2,5.3-1.1,10.9-1.2,16.3C462.8,468.5,462.9,476,462.9,483.7z M487.9,557.5c0,3.1-0.1,6.1,0,9.2
			c0.1,5.5,3.2,9.9,8,11.5c8,2.8,15.9-2.9,16.1-11.6c0.1-6,0-11.9,0.1-17.9c0-0.8,0.4-1.9,1-2.5c5.7-5.7,7.7-12.5,5.2-20.2
			c-2.6-8.1-8.5-12.6-16.8-13.3c-7.7-0.7-13.9,2.5-17.9,9.1c-4.3,7.2-4.5,14.9,0.9,21.4c3,3.6,3.7,7.1,3.4,11.3
			C487.9,555.5,487.9,556.5,487.9,557.5z"/>
	</g>
</g>
<g class="st1">
	
		<image style="display:inline;overflow:visible;opacity:0.12;enable-background:new    ;" width="440" height="592" xlink:href="A76E2A51.png"  transform="matrix(1 0 0 1 306 230)">
	</image>
	<g class="st2">
		<g>
			<path class="st6" d="M500,246.1c-68.3,0-128.7,18.9-165.9,48.1c-7.5,5.9-11.8,14.9-11.8,24.4V407c0,9.5,4.3,18.5,11.8,24.4
				c37.3,29.2,97.7,48.1,165.9,48.1s128.7-18.9,165.9-48.1c7.5-5.9,11.8-14.9,11.8-24.4v-88.4c0-9.5-4.3-18.5-11.8-24.4
				C628.7,265,568.3,246.1,500,246.1z M500,384.8c-79.1,0-143-24.4-143-54.5s64-54.4,143-54.4s143,24.3,143,54.4
				S579.1,384.8,500,384.8z"/>
			<path class="st6" d="M677.8,462.1v81.3c0,9.7-4.1,19.1-11.8,25c-0.1,0-0.1,0.1-0.2,0.1c-37.3,29.2-97.6,48-165.8,48
				s-128.5-18.8-165.8-48c-0.1,0-0.1-0.1-0.2-0.1c-7.6-5.9-11.8-15.4-11.8-25v-81.3c3.7,3.6,7.7,7.1,11.9,10.4
				c37.3,29.2,97.6,48,165.8,48s128.5-18.8,165.8-48C670.1,469.3,674,465.7,677.8,462.1z"/>
			<path class="st6" d="M677.8,599.4v83.7c0,8.5-3.9,16.4-10.5,21.7c-37.2,29.8-98.2,49.1-167.2,49.1s-130-19.3-167.2-49.1
				c-6.6-5.3-10.5-13.3-10.5-21.7v-83.7c35.4,35,101.7,58.5,177.8,58.5S642.3,634.4,677.8,599.4z"/>
		</g>
	</g>
</g>
<g class="st1">
	<g class="st7">
		
			<image style="overflow:visible;opacity:0.16;enable-background:new    ;" width="179" height="132" xlink:href="A76E2A56.png"  transform="matrix(4.8043 0 0 4.8043 190.2504 348.8528)">
		</image>
		<g>
			<path class="st4" d="M493.4,616.1c-10.4,0.3-16.5-3.5-22.6-7.2c-51.5-31.7-103.2-63.3-154.6-95.1c-17.1-10.6-21.6-23.1-13.7-35
				c8.8-13.4,35.5-22,47.5-14.7c37.2,22.7,74.5,45.4,111.3,68.6c20.5,12.9,40.3,12.5,60.5,0.1c36-22.2,72-44.4,108.1-66.4
				c15.5-9.5,43.8-0.4,50.8,16.2c4.9,11.5,0.8,21-9,27c-55.8,34.7-111.8,69-167.9,103.2C500,615,495.2,615.5,493.4,616.1z"/>
		</g>
	</g>
	<g class="st8">
		
			<image style="overflow:visible;opacity:0.16;enable-background:new    ;" width="179" height="131" xlink:href="32EC1E5E.png"  transform="matrix(4.804 0 0 4.804 187.3902 448.5055)">
		</image>
		<g>
			<path class="st4" d="M491.7,713.3c-8.3,0.4-15.2-3.4-21.9-7.5c-51.1-31.3-102.1-62.6-153-94.2c-12.9-8-23.7-18.2-14.1-35.1
				c7.9-14,35.3-22.2,47.5-14.8c36.1,22,72.5,43.8,108,66.8c22.4,14.5,43.5,14.4,65.7,0.6c34.3-21.3,68.7-42.5,103.2-63.4
				c17.4-10.6,37.3-6.5,49.8,9.7c7,9,7.2,18.1-0.3,26.6c-3.8,4.3-8.7,7.9-13.6,10.9c-49.3,30.5-98.6,60.9-148,91.2
				C507.8,708.4,500.6,712.9,491.7,713.3z"/>
		</g>
	</g>
	
		<image style="display:inline;overflow:visible;opacity:0.16;enable-background:new    ;" width="179" height="149" xlink:href="32EC1E59.png"  transform="matrix(4.7959 0 0 4.7959 191.0004 171.0259)">
	</image>
	<g class="st2">
		<path class="st4" d="M662.9,371.3c-50.5-26.9-101.4-53.2-151.8-80.4c-14-7.6-26-8-40.3-0.3c-50.9,27.6-102.3,54.2-153.5,81.4
			c-25,13.2-25.4,31-0.9,46.2c50.4,31.2,101,62,151.3,93.2c7.4,4.6,14.7,8.4,25,7.8c7.6,0.8,14.7-3.9,22-8.4
			c49.9-30.7,99.9-61.3,149.7-92.2C690,402.7,689.5,385.4,662.9,371.3z M521,443.8c-8.8-10-24.5-26-32.3-36.1
			c-5-6.6-13.3-9.3-26.9-9.3c-18.3,0-33.3-6.4-37.7-15.3c-4.4-9.1,3-19,17.8-23.7c15.9-5,35.2-4.2,48.9,2.4
			c10.3,4.9,15.5,11.2,12.6,18.3c-3.3,7.8,1.4,12.9,14.1,17c17.1,5.6,33.4,11.7,50.7,17.7L521,443.8z"/>
	</g>
</g>
<g class="st1">
	
		<image style="display:inline;overflow:visible;opacity:0.6;enable-background:new    ;" width="101" height="97" xlink:href="32EC1E5A.png"  transform="matrix(11.9407 0 0 11.9407 -3.0026 20.8786)">
	</image>
	<g class="st2">
		<path class="st4" d="M584.7,604.2H409.3l-33.5,80.9h-89.6l168.4-377.8H541l168.9,377.8h-91.7L584.7,604.2z M557.2,537.8
			l-59.9-144.6l-59.9,144.6H557.2z"/>
	</g>
</g>
<g class="st1">
	
		<image style="display:inline;overflow:visible;opacity:0.65;" width="850" height="622" xlink:href="10DE746F.png"  transform="matrix(1 0 0 1 115 229)">
	</image>
	<g class="st2">
		<g>
			<path d="M804.4,309.6L679.8,690.4h-94.7l-83.8-257.9l-86.5,257.9h-94.1L195.6,309.6H287l86,267.6l89.8-267.6h81.6l87,269.8
				L720,309.6H804.4z"/>
		</g>
	</g>
</g>
<g class="st1">
	
		<image style="display:inline;overflow:visible;opacity:0.65;" width="578" height="622" xlink:href="10DE7472.png"  transform="matrix(1 0 0 1 251 229)">
	</image>
	<g class="st2">
		<g>
			<path class="st4" d="M574,690.4l-73.4-106.1h-4.4h-76.7v106.1h-88.1V309.6h164.8c33.7,0,63,5.6,87.9,16.9
				c24.8,11.2,44,27.2,57.4,47.9c13.4,20.7,20.1,45.2,20.1,73.4s-6.8,52.7-20.4,73.2c-13.6,20.5-32.9,36.2-57.9,47.1l85.4,122.4H574
				z M551.7,398.5c-13.8-11.4-33.9-17.1-60.4-17.1h-71.8v132.7h71.8c26.5,0,46.6-5.8,60.4-17.4c13.8-11.6,20.7-27.9,20.7-49
				C572.4,426.4,565.5,410,551.7,398.5z"/>
		</g>
	</g>
</g>
<g>
	
		<image style="overflow:visible;opacity:0.65;" width="658" height="634" xlink:href="10DE7471.png"  transform="matrix(1 0 0 1 211 223)">
	</image>
	<g>
		<g>
			<path class="st4" d="M393.1,671.4c-31.7-17-56.6-40.5-74.5-70.4s-26.9-63.6-26.9-100.9c0-37.3,9-71,26.9-100.9
				s42.8-53.4,74.5-70.4c31.7-17,67.4-25.6,106.9-25.6c39.5,0,75.1,8.5,106.6,25.6c31.6,17.1,56.4,40.5,74.5,70.4
				c18.1,29.9,27.2,63.6,27.2,100.9c0,37.4-9.1,71-27.2,100.9c-18.1,29.9-43,53.4-74.5,70.4c-31.6,17.1-67.1,25.6-106.6,25.6
				C460.5,696.9,424.8,688.4,393.1,671.4z M560.9,606.4c18.1-10.3,32.4-24.8,42.7-43.2s15.5-39.5,15.5-63.1
				c0-23.6-5.2-44.6-15.5-63.1s-24.6-32.9-42.7-43.2c-18.1-10.3-38.4-15.5-60.9-15.5c-22.5,0-42.8,5.2-60.9,15.5
				c-18.1,10.3-32.4,24.8-42.7,43.2c-10.3,18.5-15.5,39.5-15.5,63.1c0,23.6,5.2,44.6,15.5,63.1c10.3,18.5,24.6,32.9,42.7,43.2
				c18.1,10.3,38.4,15.5,60.9,15.5C522.5,621.9,542.8,616.7,560.9,606.4z"/>
		</g>
	</g>
</g>
<g class="st1">
	
		<image style="display:inline;overflow:visible;opacity:0.65;" width="724" height="682" xlink:href="10DE7474.png"  transform="matrix(1 0 0 1 178 199)">
	</image>
	<g class="st2">
		<g>
			<path class="st4" d="M741.4,279.1L550.2,720.9h-101L258.6,279.1H369l134.4,315.5l136.3-315.5H741.4z"/>
		</g>
	</g>
</g>
</svg>
