<?xml version="1.0" encoding="utf-8"?>
<!-- Generator: Adobe Illustrator 23.0.2, SVG Export Plug-In . SVG Version: 6.00 Build 0)  -->
<svg version="1.1" id="Calque_1" xmlns="http://www.w3.org/2000/svg" xmlns:xlink="http://www.w3.org/1999/xlink" x="0px" y="0px"
	 viewBox="0 0 1000 1000" style="enable-background:new 0 0 1000 1000;" xml:space="preserve">
<style type="text/css">
	.st0{fill:#FFFFFF;}
	.st1{display:none;}
	.st2{display:inline;opacity:0.75;fill:#2661E8;}
	.st3{display:inline;opacity:0.4;fill:#2661E8;}
	.st4{display:inline;fill:#2661E8;}
	.st5{opacity:0.4;fill:#E2A829;}
	.st6{opacity:0.8;fill:#E2A829;}
</style>
<circle class="st0" cx="500" cy="500" r="500"/>
<g class="st1">
	<path class="st2" d="M496.89,749.43c-22.11,0.58-35.22-7.37-48.28-15.39c-110-67.6-220.14-134.98-329.87-203
		c-36.44-22.59-46.07-49.23-29.34-74.7c18.79-28.6,75.78-46.87,101.27-31.33c79.42,48.42,158.86,96.82,237.53,146.44
		c43.7,27.57,85.93,26.75,129.02,0.2c76.83-47.33,153.61-94.75,230.63-141.77c33.16-20.24,93.41-0.94,108.4,34.49
		c10.35,24.48,1.62,44.71-19.22,57.66c-119.08,74.01-238.63,147.24-358.3,220.29C510.78,747.17,500.57,748.29,496.89,749.43z"/>
	<path class="st3" d="M493.2,956.95c-17.66,0.78-32.42-7.19-46.67-15.93C337.6,874.15,228.61,807.37,120.04,739.91
		c-27.55-17.12-50.48-38.9-30.07-74.88c16.95-29.88,75.33-47.38,101.45-31.48c77.13,46.97,154.65,93.38,230.45,142.43
		c47.8,30.94,92.91,30.71,140.23,1.26c73.13-45.52,146.53-90.61,220.12-135.39c37.13-22.59,79.57-13.86,106.25,20.59
		c14.86,19.18,15.34,38.72-0.68,56.77c-8.13,9.17-18.56,16.77-29.07,23.28c-105.12,65.11-210.45,129.88-315.8,194.64
		C527.53,946.59,512.07,956.16,493.2,956.95z"/>
	<path class="st4" d="M875.28,227.13c-107.83-57.5-216.41-113.51-323.91-171.6c-29.88-16.19-55.59-17.03-85.96-0.58
		c-108.58,58.92-218.33,115.68-327.58,173.6c-53.25,28.21-54.17,66.1-1.92,98.48c107.5,66.52,215.41,132.29,322.91,198.8
		c15.69,9.76,31.3,17.86,53.42,16.61c16.28,1.75,31.38-8.35,46.91-17.86c106.41-65.6,213.08-130.87,319.41-196.63
		C932.95,294.23,931.87,257.26,875.28,227.13z M572.4,381.95c-18.78-21.37-52.33-55.59-69.02-77.12
		c-10.77-14.02-28.46-19.86-57.42-19.86c-38.98,0.08-71.11-13.6-80.46-32.72c-9.43-19.45,6.34-40.48,37.89-50.49
		c33.97-10.77,75.2-8.93,104.41,5.09c22.03,10.43,33.13,23.95,26.79,39.06c-7.09,16.69,3.09,27.46,30.05,36.31
		c36.39,11.85,71.28,24.87,108.25,37.72L572.4,381.95z"/>
	<path class="st4" d="M672.89,319.94L572.4,381.95c-18.78-21.37-52.33-55.59-69.02-77.12c-10.77-14.02-28.46-19.86-57.42-19.86
		c-38.98,0.08-71.11-13.6-80.46-32.72c-9.43-19.45,6.34-40.48,37.89-50.49c33.97-10.77,75.2-8.93,104.41,5.09
		c22.03,10.43,33.13,23.95,26.79,39.06c-7.09,16.69,3.09,27.46,30.05,36.31C601.03,294.07,635.92,307.09,672.89,319.94z"/>
</g>
<g>
	<path class="st5" d="M484.65,684.38c-11.04,0.23-17.6-2.89-24.12-6.03c-54.95-26.47-109.98-52.85-164.8-79.49
		c-18.21-8.85-23.02-19.28-14.66-29.25c9.39-11.2,37.86-18.35,50.59-12.27c39.68,18.96,79.37,37.91,118.66,57.34
		c21.83,10.8,42.93,10.47,64.46,0.08c38.38-18.53,76.74-37.1,115.22-55.51c16.56-7.93,46.67-0.37,54.15,13.51
		c5.17,9.59,0.81,17.51-9.6,22.58c-59.49,28.98-119.22,57.66-179,86.26C491.59,683.49,486.48,683.93,484.65,684.38z"/>
	<path class="st6" d="M673.65,479.88c-53.87-22.59-108.1-44.44-161.74-67.21c-14.94-6.36-27.88-6.64-43.05-0.28
		c-54.23,23.14-109.04,45.36-163.62,68.04c-26.58,10.97-27.05,25.81-0.94,38.54c53.76,26,107.63,51.81,161.27,77.81
		c7.88,3.87,15.64,7.01,26.7,6.55c8.12,0.65,15.76-3.32,23.41-7.01c53.17-25.72,106.45-51.26,159.62-76.98
		C702.46,506.16,701.99,491.69,673.65,479.88z M522.38,540.46c-9.41-8.39-26.11-21.76-34.46-30.15c-5.41-5.53-14.23-7.84-28.7-7.84
		c-19.53,0.09-35.52-5.26-40.23-12.82c-4.71-7.56,3.18-15.86,18.94-19.73c16.94-4.24,37.52-3.5,52.11,1.94
		c11.06,4.15,16.59,9.4,13.41,15.3c-3.53,6.55,1.53,10.79,15.06,14.29c18.11,4.61,35.64,9.68,54.11,14.75L522.38,540.46z"/>
	<path class="st6" d="M572.6,516.21l-50.23,24.25c-9.41-8.39-26.11-21.76-34.46-30.15c-5.41-5.53-14.23-7.84-28.7-7.84
		c-19.53,0.09-35.52-5.26-40.23-12.82c-4.71-7.56,3.18-15.86,18.94-19.73c16.94-4.24,37.52-3.5,52.11,1.94
		c11.06,4.15,16.59,9.4,13.41,15.3c-3.53,6.55,1.53,10.79,15.06,14.29C536.61,506.07,554.14,511.14,572.6,516.21z"/>
	<path class="st5" d="M823.39,313.88H523.25v0c0-50.48-40.92-91.41-91.41-91.41h-24.43h-98.63H180.62
		c-37.34,0-67.62,30.27-67.62,67.62v87.4v13.1v323.32c0,35.13,28.48,63.61,63.61,63.61h646.78c35.13,0,63.61-28.48,63.61-63.61
		V377.49C887,342.36,858.52,313.88,823.39,313.88z"/>
</g>
</svg>
