<?xml version="1.0" encoding="utf-8"?>
<!-- Generator: Adobe Illustrator 23.0.2, SVG Export Plug-In . SVG Version: 6.00 Build 0)  -->
<svg version="1.1" id="Calque_1" xmlns="http://www.w3.org/2000/svg" xmlns:xlink="http://www.w3.org/1999/xlink" x="0px" y="0px"
	 viewBox="0 0 1000 1000" style="enable-background:new 0 0 1000 1000;" xml:space="preserve">
<style type="text/css">
	.st0{fill:#EDF4F9;}
	.st1{display:none;}
	.st2{display:inline;opacity:0.75;fill:#2661E8;enable-background:new    ;}
	.st3{display:inline;opacity:0.4;fill:#2661E8;enable-background:new    ;}
	.st4{display:inline;fill:#2661E8;}
	.st5{display:inline;opacity:0.6;fill:#E52866;enable-background:new    ;}
	.st6{display:inline;fill:#E52866;}
	.st7{opacity:0.5;fill:#20CEC9;}
	.st8{fill:#20CEC9;}
</style>
<circle class="st0" cx="500" cy="500" r="500"/>
<g class="st1">
	<path class="st2" d="M496.89,749.43c-22.11,0.58-35.22-7.37-48.28-15.39c-110-67.6-220.14-134.98-329.87-203
		c-36.44-22.59-46.07-49.23-29.34-74.7c18.79-28.6,75.78-46.87,101.27-31.33c79.42,48.42,158.86,96.82,237.53,146.44
		c43.7,27.57,85.93,26.75,129.02,0.2c76.83-47.33,153.61-94.75,230.63-141.77c33.16-20.24,93.41-0.94,108.4,34.49
		c10.35,24.48,1.62,44.71-19.22,57.66c-119.08,74.01-238.63,147.24-358.3,220.29C510.78,747.17,500.57,748.29,496.89,749.43z"/>
	<path class="st3" d="M493.2,956.95c-17.66,0.78-32.42-7.19-46.67-15.93C337.6,874.15,228.61,807.37,120.04,739.91
		c-27.55-17.12-50.48-38.9-30.07-74.88c16.95-29.88,75.33-47.38,101.45-31.48c77.13,46.97,154.65,93.38,230.45,142.43
		c47.8,30.94,92.91,30.71,140.23,1.26c73.13-45.52,146.53-90.61,220.12-135.39c37.13-22.59,79.57-13.86,106.25,20.59
		c14.86,19.18,15.34,38.72-0.68,56.77c-8.13,9.17-18.56,16.77-29.07,23.28C753.6,807.6,648.27,872.37,542.92,937.13
		C527.53,946.59,512.07,956.16,493.2,956.95z"/>
	<path class="st4" d="M875.28,227.13c-107.83-57.5-216.41-113.51-323.91-171.6c-29.88-16.19-55.59-17.03-85.96-0.58
		c-108.58,58.92-218.33,115.68-327.58,173.6c-53.25,28.21-54.17,66.1-1.92,98.48c107.5,66.52,215.41,132.29,322.91,198.8
		c15.69,9.76,31.3,17.86,53.42,16.61c16.28,1.75,31.38-8.35,46.91-17.86c106.41-65.6,213.08-130.87,319.41-196.63
		C932.95,294.23,931.87,257.26,875.28,227.13z M572.4,381.95c-18.78-21.37-52.33-55.59-69.02-77.12
		c-10.77-14.02-28.46-19.86-57.42-19.86c-38.98,0.08-71.11-13.6-80.46-32.72c-9.43-19.45,6.34-40.48,37.89-50.49
		c33.97-10.77,75.2-8.93,104.41,5.09c22.03,10.43,33.13,23.95,26.79,39.06c-7.09,16.69,3.09,27.46,30.05,36.31
		c36.39,11.85,71.28,24.87,108.25,37.72L572.4,381.95z"/>
	<path class="st4" d="M672.89,319.94L572.4,381.95c-18.78-21.37-52.33-55.59-69.02-77.12c-10.77-14.02-28.46-19.86-57.42-19.86
		c-38.98,0.08-71.11-13.6-80.46-32.72c-9.43-19.45,6.34-40.48,37.89-50.49c33.97-10.77,75.2-8.93,104.41,5.09
		c22.03,10.43,33.13,23.95,26.79,39.06c-7.09,16.69,3.09,27.46,30.05,36.31C601.03,294.07,635.92,307.09,672.89,319.94z"/>
</g>
<g class="st1">
	<path class="st5" d="M498.76,935c164.43-5.17,291.21-74.68,382.04-209.92c8.88-13.22,9.24-24.86,1.88-38.85
		c-44.36-84.29-112.95-135.71-206.83-151.79c-11.45-1.96-26.37,1.51-36.29,7.81c-93.02,59.07-185.62,59.67-277.89-0.36
		c-19.6-12.76-38.85-8.72-58.14-3.77C217.95,560.09,155.51,611.13,115.66,690c-5.22,10.33-4.61,19.09,1.75,28.93
		C207.34,858,335.46,928.88,498.76,935z"/>
	<path class="st6" d="M274.48,292.98c4.89,130.16,107.91,227.94,235.02,223.07c121.9-4.67,220.8-110.44,215.99-231
		C720.37,156.13,616.33,60,487.58,65.2C369.95,69.96,270.11,176.67,274.48,292.98z"/>
</g>
<g>
	<path class="st7" d="M501.24,935c-164.43-5.17-291.21-74.68-382.04-209.92c-8.88-13.22-9.24-24.86-1.88-38.85
		c44.36-84.29,112.95-135.71,206.83-151.79c11.45-1.96,26.37,1.51,36.3,7.81c93.02,59.07,185.62,59.67,277.89-0.36
		c19.6-12.76,38.85-8.72,58.14-3.77c85.58,21.97,148.02,73.01,187.88,151.87c5.22,10.33,4.61,19.09-1.75,28.93
		C792.66,858.01,664.54,928.88,501.24,935z"/>
	<path class="st8" d="M725.52,292.98c-4.89,130.16-107.91,227.94-235.03,223.07c-121.9-4.67-220.8-110.44-216-231.01
		C279.63,156.12,383.67,59.99,512.42,65.2C630.05,69.95,729.89,176.67,725.52,292.98z"/>
</g>
</svg>
